<?xml version="1.0" encoding="UTF-8" standalone="no"?>
<!-- Created with Inkscape (http://www.inkscape.org/) -->
<svg
   xmlns:dc="http://purl.org/dc/elements/1.1/"
   xmlns:cc="http://web.resource.org/cc/"
   xmlns:rdf="http://www.w3.org/1999/02/22-rdf-syntax-ns#"
   xmlns:svg="http://www.w3.org/2000/svg"
   xmlns="http://www.w3.org/2000/svg"
   xmlns:sodipodi="http://inkscape.sourceforge.net/DTD/sodipodi-0.dtd"
   xmlns:inkscape="http://www.inkscape.org/namespaces/inkscape"
   id="svg2"
   sodipodi:version="0.32"
   inkscape:version="0.43"
   width="585pt"
   height="325pt"
   sodipodi:docbase="C:\Documents and Settings\Owner\Desktop\SVG"
   sodipodi:docname="Desk front.svg"
   version="1.0">
  <metadata
     id="metadata7">
    <rdf:RDF>
      <cc:Work
         rdf:about="">
        <dc:format>image/svg+xml</dc:format>
        <dc:type
           rdf:resource="http://purl.org/dc/dcmitype/StillImage" />
      </cc:Work>
    </rdf:RDF>
  </metadata>
  <defs
     id="defs5" />
  <sodipodi:namedview
     inkscape:window-height="543"
     inkscape:window-width="756"
     inkscape:pageshadow="2"
     inkscape:pageopacity="0.0"
     borderopacity="1.0"
     bordercolor="#666666"
     pagecolor="#ffffff"
     id="base"
     inkscape:zoom="0.48128022"
     inkscape:cx="260.76757"
     inkscape:cy="381.14624"
     inkscape:window-x="22"
     inkscape:window-y="33"
     inkscape:current-layer="svg2" />
  <g
     id="g2288"
     transform="translate(-8.311166,-155.8344)">
    <path
       sodipodi:nodetypes="ccccc"
       id="path2272"
       d="M 559.96539,269.23609 L 548.31763,481.67893 C 510.21902,451.44796 465.45284,415.24536 420.05097,403.27253 L 425.72397,274.46407 C 488.17434,264.77113 496.65437,269.83801 559.96539,269.23609 z "
       style="opacity:0.98000004;fill:#6c6c6b;fill-opacity:1;fill-rule:nonzero;stroke:#000000;stroke-width:1;stroke-linecap:butt;stroke-linejoin:miter;stroke-miterlimit:4;stroke-dasharray:none;stroke-dashoffset:0;stroke-opacity:1" />
    <path
       sodipodi:nodetypes="ccccccc"
       id="path2274"
       d="M 425.49328,277.94665 L 425.95578,404.69216 L 413.30507,401.83521 L 414.35464,393.70998 L 339.61411,399.31647 L 339.2842,313.65015 C 338.34927,306.64357 380.88237,281.30876 425.49328,277.94665 z "
       style="opacity:0.98000004;fill:#6c6c6b;fill-opacity:1;fill-rule:nonzero;stroke:#000000;stroke-width:1;stroke-linecap:butt;stroke-linejoin:miter;stroke-miterlimit:4;stroke-dasharray:none;stroke-dashoffset:0;stroke-opacity:1" />
    <path
       sodipodi:nodetypes="cccccccccc"
       id="rect2269"
       d="M 709.56582,206.701 L 694.53776,227.47052 L 678.96487,449.53713 L 547.28273,480.37402 L 557.06229,275.99524 C 514.13369,269.66754 364.71679,278.81438 340.07142,310.69146 L 340.75782,525.64201 L 158.95106,559.92557 L 141.24258,251.06378 L 709.56582,206.701 z "
       style="opacity:0.98000004;fill:#555555;fill-opacity:1;fill-rule:nonzero;stroke:#000100;stroke-width:1;stroke-linecap:butt;stroke-linejoin:miter;stroke-miterlimit:4;stroke-dasharray:none;stroke-dashoffset:0;stroke-opacity:1" />
    <path
       sodipodi:nodetypes="csscc"
       id="path1308"
       d="M 93.398726,251.82364 C 110.42673,249.92087 727.79812,198.81648 739.55868,198.81648 C 750.74829,198.81648 561.47416,158.56554 545.50934,159.46382 L 14.926873,189.31756 L 93.398726,251.82364 z "
       style="fill:#555555;fill-opacity:1;fill-rule:evenodd;stroke:#000000;stroke-width:1px;stroke-linecap:butt;stroke-linejoin:miter;stroke-opacity:1" />
    <path
       sodipodi:nodetypes="ccc"
       id="path1310"
       d="M 14.813888,193.04271 L 90.887306,254.58196 L 737.24215,200.80374"
       style="fill:none;fill-opacity:0.75;fill-rule:evenodd;stroke:#000000;stroke-width:5;stroke-linecap:butt;stroke-linejoin:miter;stroke-miterlimit:4;stroke-dasharray:none;stroke-opacity:1" />
    <path
       sodipodi:nodetypes="ccccc"
       id="rect2185"
       d="M 153.41126,270.48537 L 333.91157,254.36186 L 334.71735,299.86205 L 154.73649,320.14115 L 153.41126,270.48537 z "
       style="opacity:0.98000004;fill:#cbc9c9;fill-opacity:1;fill-rule:nonzero;stroke:none;stroke-width:5;stroke-linecap:butt;stroke-linejoin:miter;stroke-miterlimit:4;stroke-dashoffset:0;stroke-opacity:1" />
    <path
       sodipodi:nodetypes="ccccc"
       id="rect2187"
       d="M 156.21141,333.59964 L 336.20188,311.95206 L 337.66801,369.96386 L 159.23588,394.72813 L 156.21141,333.59964 z "
       style="opacity:0.98000004;fill:#cbc9c9;fill-opacity:1;fill-rule:nonzero;stroke:none;stroke-width:5;stroke-linecap:butt;stroke-linejoin:miter;stroke-miterlimit:4;stroke-dashoffset:0;stroke-opacity:1" />
    <path
       sodipodi:nodetypes="ccccc"
       id="path2259"
       d="M 558.06214,347.9894 L 680.91334,327.90016 L 674.58776,419.15664 L 554.85324,444.95979 L 558.06214,347.9894 z "
       style="opacity:0.98000004;fill:#cbc9c9;fill-opacity:1;fill-rule:nonzero;stroke:none;stroke-width:5;stroke-linecap:butt;stroke-linejoin:miter;stroke-miterlimit:4;stroke-dashoffset:0;stroke-opacity:1" />
    <g
       id="g2209">
      <path
         style="fill:#000000;fill-opacity:1;fill-rule:evenodd;stroke:#555555;stroke-width:1px;stroke-linecap:butt;stroke-linejoin:miter;stroke-opacity:1"
         d="M 607.3861,379.72765 L 605.46703,396.9993 L 632.33403,392.20161 L 634.25309,375.88951 L 607.3861,379.72765 z "
         id="path2201"
         sodipodi:nodetypes="ccccc" />
      <path
         style="fill:none;fill-opacity:0.75;fill-rule:evenodd;stroke:#7c7c7e;stroke-width:3;stroke-linecap:butt;stroke-linejoin:miter;stroke-miterlimit:4;stroke-dasharray:none;stroke-opacity:1"
         d="M 614.58226,383.87564 C 616.95251,386.019 621.99945,380.40202 614.58227,380.93721 C 611.76391,381.14057 608.75016,391.34164 614.3932,391.9694 C 618.87083,392.46752 619.17662,392.61454 621.83159,391.55753 C 623.43147,390.92058 629.76781,386.62425 629.76781,384.48961 C 629.76781,382.57786 628.63006,381.48345 627.93129,380.08195 C 626.6942,377.60077 621.93786,381.34514 626.27841,381.18387"
         id="path2207"
         sodipodi:nodetypes="csssssc" />
    </g>
    <path
       sodipodi:nodetypes="ccccc"
       id="path2261"
       d="M 561.17881,285.1362 L 686.1078,271.28034 L 681.86001,320.46152 L 559.52825,338.99242 L 561.17881,285.1362 z "
       style="opacity:0.98000004;fill:#cbc9c9;fill-opacity:1;fill-rule:nonzero;stroke:none;stroke-width:5;stroke-linecap:butt;stroke-linejoin:miter;stroke-miterlimit:4;stroke-dashoffset:0;stroke-opacity:1" />
    <g
       transform="translate(6.074656,-83.1261)"
       id="g2213">
      <path
         style="fill:#000000;fill-opacity:1;fill-rule:evenodd;stroke:#555555;stroke-width:1px;stroke-linecap:butt;stroke-linejoin:miter;stroke-opacity:1"
         d="M 607.3861,379.72765 L 605.46703,396.9993 L 632.33403,392.20161 L 634.25309,375.88951 L 607.3861,379.72765 z "
         id="path2215"
         sodipodi:nodetypes="ccccc" />
      <path
         style="fill:none;fill-opacity:0.75;fill-rule:evenodd;stroke:#7c7c7e;stroke-width:3;stroke-linecap:butt;stroke-linejoin:miter;stroke-miterlimit:4;stroke-dasharray:none;stroke-opacity:1"
         d="M 614.21495,383.50834 C 616.5852,385.6517 621.63214,380.40202 614.21496,380.93721 C 611.3966,381.14057 608.75016,391.34164 614.3932,391.9694 C 618.87083,392.46752 619.17662,392.61454 621.83159,391.55753 C 623.43147,390.92058 629.76781,386.62425 629.76781,384.48961 C 629.76781,382.57786 628.63006,381.48345 627.93129,380.08195 C 626.6942,377.60077 621.93786,381.34514 626.27841,381.18387"
         id="path2217"
         sodipodi:nodetypes="csssssc" />
    </g>
    <path
       sodipodi:nodetypes="ccccc"
       id="path2263"
       d="M 562.81241,234.08794 L 687.21235,223.15891 L 686.45979,262.42572 L 562.05985,275.952 L 562.81241,234.08794 z "
       style="opacity:0.98000004;fill:#cbc9c9;fill-opacity:1;fill-rule:nonzero;stroke:none;stroke-width:5;stroke-linecap:butt;stroke-linejoin:miter;stroke-miterlimit:4;stroke-dashoffset:0;stroke-opacity:1" />
    <g
       transform="translate(9.191347,-138.7071)"
       id="g2219">
      <path
         style="fill:#000000;fill-opacity:1;fill-rule:evenodd;stroke:#555555;stroke-width:1px;stroke-linecap:butt;stroke-linejoin:miter;stroke-opacity:1"
         d="M 606.3472,378.68875 L 605.46703,397.51875 L 632.33403,394.79885 L 633.21419,375.88951 L 606.3472,378.68875 z "
         id="path2221"
         sodipodi:nodetypes="ccccc" />
      <path
         style="fill:none;fill-opacity:0.75;fill-rule:evenodd;stroke:#7c7c7e;stroke-width:3;stroke-linecap:butt;stroke-linejoin:miter;stroke-miterlimit:4;stroke-dasharray:none;stroke-opacity:1"
         d="M 614.58226,383.87564 C 616.95251,386.019 621.63214,380.40202 614.21496,380.93721 C 611.3966,381.14057 608.75016,391.34164 614.3932,391.9694 C 618.87083,392.46752 619.17662,392.61454 621.83159,391.55753 C 623.43147,390.92058 629.76781,386.62425 629.76781,384.48961 C 629.76781,382.57786 628.63006,381.48345 627.93129,380.08195 C 626.6942,377.60077 621.93786,381.34514 626.27841,381.18387"
         id="path2223"
         sodipodi:nodetypes="csssssc" />
    </g>
    <path
       sodipodi:nodetypes="ccccc"
       id="path2265"
       d="M 342.56649,243.438 L 556.31147,226.27559 L 556.5978,254.11455 L 344.93062,275.43255 L 342.56649,243.438 z "
       style="opacity:0.98000004;fill:#cbc9c9;fill-opacity:1;fill-rule:nonzero;stroke:none;stroke-width:5;stroke-linecap:butt;stroke-linejoin:miter;stroke-miterlimit:4;stroke-dashoffset:0;stroke-opacity:1" />
    <g
       transform="translate(-164.8237,-136.6293)"
       id="g2231">
      <path
         style="fill:#000000;fill-opacity:1;fill-rule:evenodd;stroke:#555555;stroke-width:1px;stroke-linecap:butt;stroke-linejoin:miter;stroke-opacity:1"
         d="M 604.78886,376.61096 L 604.42813,399.07709 L 636.48961,395.83775 L 636.85033,374.85061 L 604.78886,376.61096 z "
         id="path2233"
         sodipodi:nodetypes="ccccc" />
      <path
         style="fill:none;fill-opacity:0.75;fill-rule:evenodd;stroke:#7c7c7e;stroke-width:3;stroke-linecap:butt;stroke-linejoin:miter;stroke-miterlimit:4;stroke-dasharray:none;stroke-opacity:1"
         d="M 614.58226,381.67181 C 616.95251,383.81517 621.63214,379.3001 614.21496,379.83529 C 611.3966,380.03865 608.75016,391.34164 614.3932,391.9694 C 618.87083,392.46752 619.17662,392.61454 621.83159,391.55753 C 623.43147,390.92058 629.76781,386.62425 629.76781,384.48961 C 629.76781,382.57786 628.63006,381.48345 627.93129,380.08195 C 626.6942,377.60077 621.93786,381.34514 626.27841,381.18387"
         id="path2235"
         sodipodi:nodetypes="csssssc" />
    </g>
    <g
       transform="matrix(1.296468,0,0,1.140964,-554.5535,-153.7038)"
       id="g2237">
      <path
         style="fill:#000000;fill-opacity:1;fill-rule:evenodd;stroke:#555555;stroke-width:1px;stroke-linecap:butt;stroke-linejoin:miter;stroke-opacity:1"
         d="M 604.58145,377.90657 L 605.06637,397.45457 L 633.93669,393.56742 L 634.25309,374.5237 L 604.58145,377.90657 z "
         id="path2239"
         sodipodi:nodetypes="ccccc" />
      <path
         style="fill:none;fill-opacity:0.75;fill-rule:evenodd;stroke:#7c7c7e;stroke-width:2.46663213;stroke-linecap:butt;stroke-linejoin:miter;stroke-miterlimit:4;stroke-dasharray:none;stroke-opacity:1"
         d="M 614.58226,381.67181 C 616.95251,383.81517 621.63214,379.3001 614.21496,379.83529 C 611.3966,380.03865 608.75016,391.34164 614.3932,391.9694 C 618.87083,392.46752 619.17662,392.61454 621.83159,391.55753 C 623.43147,390.92058 629.76781,386.62425 629.76781,384.48961 C 629.76781,382.57786 628.63006,381.48345 627.93129,380.08195 C 626.6942,377.60077 621.93786,381.34514 626.27841,381.18387"
         id="path2241"
         sodipodi:nodetypes="csssssc" />
    </g>
    <path
       sodipodi:nodetypes="ccccc"
       id="path2245"
       d="M 159.12613,406.687 L 334.96102,381.40328 L 335.38826,487.72375 L 163.70895,519.24083 L 159.12613,406.687 z "
       style="opacity:0.98000004;fill:#cbc9c9;fill-opacity:1;fill-rule:nonzero;stroke:none;stroke-width:5;stroke-linecap:butt;stroke-linejoin:miter;stroke-miterlimit:4;stroke-dashoffset:0;stroke-opacity:1" />
    <g
       transform="matrix(1.260062,-6.058004e-2,5.591575e-2,1.163045,-554.3739,-59.49487)"
       id="g2247">
      <path
         style="fill:#000000;fill-opacity:1;fill-rule:evenodd;stroke:#555555;stroke-width:1px;stroke-linecap:butt;stroke-linejoin:miter;stroke-opacity:1"
         d="M 604.5664,378.2409 L 605.46703,396.9993 L 635.11419,394.57956 L 635.89825,375.9752 L 604.5664,378.2409 z "
         id="path2249"
         sodipodi:nodetypes="ccccc" />
      <path
         style="fill:none;fill-opacity:0.75;fill-rule:evenodd;stroke:#7c7c7e;stroke-width:2.47528791;stroke-linecap:butt;stroke-linejoin:miter;stroke-miterlimit:4;stroke-dasharray:none;stroke-opacity:1"
         d="M 614.58226,381.67181 C 616.95251,383.81517 621.63214,379.3001 614.21496,379.83529 C 611.3966,380.03865 608.75016,391.34164 614.3932,391.9694 C 618.87083,392.46752 619.17662,392.61454 621.83159,391.55753 C 623.43147,390.92058 629.76781,386.62425 629.76781,384.48961 C 629.76781,382.57786 628.63006,381.48345 627.93129,380.08195 C 626.6942,377.60077 621.93786,381.34514 626.27841,381.18387"
         id="path2251"
         sodipodi:nodetypes="csssssc" />
    </g>
    <g
       transform="matrix(1.296468,0,0,1.140964,-551.1771,8.883469)"
       id="g2253">
      <path
         style="fill:#000000;fill-opacity:1;fill-rule:evenodd;stroke:#555555;stroke-width:1px;stroke-linecap:butt;stroke-linejoin:miter;stroke-opacity:1"
         d="M 605.38278,380.18292 L 606.26836,397.90984 L 633.93669,392.20161 L 634.25309,374.5237 L 605.38278,380.18292 z "
         id="path2255"
         sodipodi:nodetypes="ccccc" />
      <path
         style="fill:none;fill-opacity:0.75;fill-rule:evenodd;stroke:#7c7c7e;stroke-width:2.46663213;stroke-linecap:butt;stroke-linejoin:miter;stroke-miterlimit:4;stroke-dasharray:none;stroke-opacity:1"
         d="M 614.58226,381.67181 C 616.95251,383.81517 621.63214,379.3001 614.21496,379.83529 C 611.3966,380.03865 608.75016,391.34164 614.3932,391.9694 C 618.87083,392.46752 619.17662,392.61454 621.83159,391.55753 C 623.43147,390.92058 629.76781,386.62425 629.76781,384.48961 C 629.76781,382.57786 628.63006,381.48345 627.93129,380.08195 C 626.6942,377.60077 621.93786,381.34514 626.27841,381.18387"
         id="path2257"
         sodipodi:nodetypes="csssssc" />
    </g>
    <path
       sodipodi:nodetypes="ccscccc"
       id="path2282"
       d="M 140.47283,251.73013 L 157.91414,560.79028 C 156.19701,554.40239 152.05264,561.53239 149.73099,555.28582 C 109.97055,448.30769 92.289136,486.37166 84.708952,453.29479 L 68.565149,241.37469 L 90.45389,256.05927 L 140.47283,251.73013 z "
       style="opacity:0.98000004;fill:#6c6c6b;fill-opacity:1;fill-rule:nonzero;stroke:#000000;stroke-width:1;stroke-linecap:butt;stroke-linejoin:miter;stroke-miterlimit:4;stroke-dasharray:none;stroke-dashoffset:0;stroke-opacity:1" />
  </g>
</svg>
