<?xml version="1.0" encoding="UTF-8" standalone="no"?>
<!-- Created with Inkscape (http://www.inkscape.org/) -->

<svg
   xmlns:svg="http://www.w3.org/2000/svg"
   xmlns="http://www.w3.org/2000/svg"
   xmlns:inkscape="http://www.inkscape.org/namespaces/inkscape"
   version="1.1"
   width="738.71002"
   height="927.90997"
   id="svg2">
  <defs
     id="defs4">
    <inkscape:path-effect
       effect="spiro"
       id="path-effect3741" />
    <inkscape:path-effect
       effect="spiro"
       id="path-effect2925" />
    <inkscape:path-effect
       effect="spiro"
       id="path-effect14395" />
    <inkscape:path-effect
       effect="spiro"
       id="path-effect14197" />
    <inkscape:path-effect
       effect="spiro"
       id="path-effect14193" />
    <inkscape:path-effect
       effect="spiro"
       id="path-effect14189" />
    <inkscape:path-effect
       effect="spiro"
       id="path-effect13511" />
    <inkscape:path-effect
       effect="spiro"
       id="path-effect13507" />
    <inkscape:path-effect
       effect="spiro"
       id="path-effect13458" />
    <inkscape:path-effect
       effect="spiro"
       id="path-effect13433" />
    <inkscape:path-effect
       effect="spiro"
       id="path-effect13408" />
    <inkscape:path-effect
       effect="spiro"
       id="path-effect9406" />
    <inkscape:path-effect
       effect="spiro"
       id="path-effect9406-9" />
    <inkscape:path-effect
       effect="spiro"
       id="path-effect9406-8" />
    <inkscape:path-effect
       effect="spiro"
       id="path-effect9406-5" />
    <inkscape:path-effect
       effect="spiro"
       id="path-effect9406-7" />
    <inkscape:path-effect
       effect="spiro"
       id="path-effect9406-9-3" />
    <inkscape:path-effect
       effect="spiro"
       id="path-effect9406-8-2" />
    <inkscape:path-effect
       effect="spiro"
       id="path-effect13507-2" />
    <inkscape:path-effect
       effect="spiro"
       id="path-effect14193-1" />
    <inkscape:path-effect
       effect="spiro"
       id="path-effect9406-1" />
    <inkscape:path-effect
       effect="spiro"
       id="path-effect9406-9-2" />
    <inkscape:path-effect
       effect="spiro"
       id="path-effect9406-8-7" />
    <inkscape:path-effect
       effect="spiro"
       id="path-effect9406-8-3" />
    <inkscape:path-effect
       effect="spiro"
       id="path-effect9406-9-9" />
    <inkscape:path-effect
       effect="spiro"
       id="path-effect9406-9-98" />
    <inkscape:path-effect
       effect="spiro"
       id="path-effect14193-0" />
    <inkscape:path-effect
       effect="spiro"
       id="path-effect9406-9-6" />
    <inkscape:path-effect
       effect="spiro"
       id="path-effect9406-8-0" />
    <inkscape:path-effect
       effect="spiro"
       id="path-effect9406-8-3-2" />
    <inkscape:path-effect
       effect="spiro"
       id="path-effect9406-5-4" />
    <inkscape:path-effect
       effect="spiro"
       id="path-effect9406-7-8" />
    <inkscape:path-effect
       effect="spiro"
       id="path-effect13408-6" />
    <inkscape:path-effect
       effect="spiro"
       id="path-effect13433-5" />
    <inkscape:path-effect
       effect="spiro"
       id="path-effect13511-0" />
    <inkscape:path-effect
       effect="spiro"
       id="path-effect13507-9" />
    <inkscape:path-effect
       effect="spiro"
       id="path-effect14193-00" />
    <inkscape:path-effect
       effect="spiro"
       id="path-effect14193-0-6" />
  </defs>
  <g
     transform="matrix(0.74793064,0,0,0.74793064,110.81968,83.925042)"
     id="layer1">
    <g
       transform="translate(1099.046,-8.0812204)"
       id="g3744">
      <path
         d="m -1227.3354,898.34008 c 3.1293,-9.30627 5.168,-18.97878 6.061,-28.75641 1.4096,-15.43391 -0.031,-31.00386 1.0101,-46.46702 1.3918,-20.68123 7.2013,-40.90997 8.0812,-61.6193 0.5301,-12.47717 -0.738,-24.95323 -2.0203,-37.37565 -1.3889,-13.45504 -2.7851,-27.16938 0,-40.4061 2.0609,-9.79503 6.3982,-19.29061 6.0609,-29.29442 -0.2534,-7.51477 -3.1381,-14.65511 -5.8802,-21.6563 -2.7421,-7.00119 -5.4209,-14.26361 -5.2314,-21.78026 0.2375,-9.42028 4.929,-18.09752 7.071,-27.27412 2.2275,-9.54278 1.6659,-19.49627 0.8187,-29.25887 -0.8472,-9.7626 -1.9671,-19.59822 -0.8187,-29.32998 0.9023,-7.64639 3.1862,-15.05118 4.8639,-22.56562 1.6776,-7.51445 2.7484,-15.34971 1.1971,-22.89124 -1.7193,-8.35803 -6.5544,-15.84836 -8.0813,-24.24366 -1.217,-6.69134 -0.2621,-13.57857 1.0226,-20.25724 1.2848,-6.67867 2.9043,-13.34871 3.018,-20.14887 0.1283,-7.67123 -1.6685,-15.25053 -3.9717,-22.56894 -2.3033,-7.31841 -5.1239,-14.47509 -7.1399,-21.87777 -2.5084,-9.21044 -3.7507,-18.74278 -4.0406,-28.28427 -0.6051,-19.91497 2.9048,-39.70724 4.0406,-59.599 1.0752,-18.8311 0.021,-37.73275 1.0101,-56.56854 0.9383,-17.86045 3.7135,-35.66605 3.0305,-53.53809 -0.7233,-18.92526 -5.2946,-38.12044 -1.0102,-56.56854 2.4985,-10.7581 7.8825,-20.58748 13.132,-30.304592 8.7366,-16.171984 17.2793,-32.486916 24.2437,-49.497475 6.6711,-16.294238 11.8778,-33.2078211 15.1523,-50.507626 2.234,-11.802675 3.7125,-24.172972 10.1015,-34.345188 4.9228,-7.837817 12.5788,-13.839033 21.2132,-17.172593 9.0102,-3.478657 18.8265,-4.102338 28.2843,-6.060915 13.1239,-2.717783 26.0314,-8.077402 39.3959,-7.071068 8.2901,0.624234 16.1696,3.676335 24.0585,6.299464 7.8888,2.623129 16.1838,4.867413 24.4288,3.802061 9.1026,-1.176168 17.2656,-6.272741 26.264,-8.08122 9.5986,-1.929111 19.5039,-0.01502 29.29442,0 10.49338,0.01609 20.85782,-2.156155 31.31473,-3.030458 14.4472,-1.207932 28.96966,0.06706 43.43656,1.010153 38.66943,2.520848 77.50794,2.667155 116.16755,0 38.07735,-2.626985 76.61671,-7.956028 114.14723,-1.010153 11.77101,2.178493 23.30156,5.54723 35.09821,7.582315 11.79665,2.035086 24.07995,2.698679 35.61247,-0.511247 9.65619,-2.687674 18.48308,-8.003395 28.28427,-10.101525 7.84608,-1.6796 16.01102,-1.220665 23.93119,0.06499 7.92017,1.285657 15.6839,3.382742 23.54598,4.98577 17.03564,3.473461 34.48018,4.617368 51.51778,8.081221 16.52019,3.358661 32.68223,8.8995 49.49748,10.101525 11.4231,0.816571 22.89968,-0.392837 34.34519,0 13.95896,0.479105 28.3371,3.590476 39.39594,12.121831 7.28523,5.620199 12.76141,13.322344 16.8377,21.571294 4.07628,8.24895 6.83076,17.0783876 9.42627,25.90587655 6.80938,23.15912145 12.65942,46.70029845 15.15229,70.71067745 2.26234,21.790027 1.74046,43.764952 1.01015,65.659932 -0.77527,23.24293 -1.7825,46.47818 -3.03046,69.70053 -1.35955,25.29883 -2.98323,50.9251 2.02031,75.76144 3.34324,16.595 9.61419,32.63542 11.11168,49.49747 1.01713,11.45304 -0.20244,22.99169 -2.02031,34.34519 -2.95671,18.46607 -7.51394,36.86235 -7.07107,55.55839 0.39241,16.56567 4.71572,32.94092 4.04061,49.49747 -0.52461,12.86561 -4.06232,25.50952 -4.04061,38.3858 0.0227,13.46255 3.92916,26.58966 8.08122,39.39595 4.18956,12.92195 8.69583,25.88473 10.10153,39.39595 1.32947,12.7785 -0.1574,25.67411 -2.02031,38.3858 -2.32024,15.83225 -5.22689,31.58243 -7.07106,47.47717 -3.07555,26.50782 -3.16904,53.44569 1.01015,79.80205 1.5975,10.07477 3.82071,20.1063 4.04061,30.30457 0.28486,13.21091 -2.79794,26.24054 -4.04061,39.39595 -1.36269,14.42598 -0.50814,28.95527 0,43.43656 0.37164,10.59128 0.55732,21.18908 0.5569,31.78687 l -945.04959,0"
         id="path3739"
         style="fill:#cccccc;stroke:none" />
      <g
         transform="translate(901.05609,-5.3480894)"
         id="g3709">
        <g
           transform="translate(-2965.8419,0)"
           id="g14717">
          <path
             d="m 817.71967,998.0765 989.08593,0"
             id="path9404-4"
             style="color:#000000;fill:none;stroke:#000000;stroke-width:6.084795;stroke-linecap:butt;stroke-linejoin:miter;stroke-miterlimit:4;stroke-opacity:1;stroke-dasharray:none;stroke-dashoffset:0;marker:none;visibility:visible;display:inline;overflow:visible;enable-background:accumulate" />
          <path
             d="m 817.71967,985.50501 989.08593,0"
             id="path9404-2"
             style="color:#000000;fill:none;stroke:#000000;stroke-width:6.084795;stroke-linecap:butt;stroke-linejoin:miter;stroke-miterlimit:4;stroke-opacity:1;stroke-dasharray:none;stroke-dashoffset:0;marker:none;visibility:visible;display:inline;overflow:visible;enable-background:accumulate" />
          <path
             d="m 818.09042,1029.5456 988.25758,0"
             id="path9404-2-3"
             style="color:#000000;fill:none;stroke:#000000;stroke-width:7;stroke-linecap:butt;stroke-linejoin:miter;stroke-miterlimit:4;stroke-opacity:1;stroke-dasharray:none;stroke-dashoffset:0;marker:none;visibility:visible;display:inline;overflow:visible;enable-background:accumulate" />
          <path
             d="m 1473.8268,1085.4649 -421.4285,-120.2055 421.4285,120.2055 z"
             id="rect9476-1"
             style="color:#000000;fill:#ffffff;fill-opacity:1;fill-rule:nonzero;stroke:#000000;stroke-width:5.9991188;stroke-linecap:round;stroke-linejoin:miter;stroke-miterlimit:4;stroke-opacity:1;stroke-dasharray:none;stroke-dashoffset:0;marker:none;visibility:visible;display:inline;overflow:visible;enable-background:accumulate" />
          <path
             d="m 817.71967,920.07647 989.08593,0"
             id="path9404-5"
             style="color:#000000;fill:none;stroke:#000000;stroke-width:6.084795;stroke-linecap:butt;stroke-linejoin:miter;stroke-miterlimit:4;stroke-opacity:1;stroke-dasharray:none;stroke-dashoffset:0;marker:none;visibility:visible;display:inline;overflow:visible;enable-background:accumulate" />
          <path
             d="m 817.71967,906.3622 989.08593,0"
             id="path9404-1"
             style="color:#000000;fill:none;stroke:#000000;stroke-width:6.084795;stroke-linecap:butt;stroke-linejoin:miter;stroke-miterlimit:4;stroke-opacity:1;stroke-dasharray:none;stroke-dashoffset:0;marker:none;visibility:visible;display:inline;overflow:visible;enable-background:accumulate" />
          <path
             d="m 985.125,36.90239 c 0,330.39584 0,660.79168 0,991.18741 223.8438,0 447.6875,-10e-5 671.5312,0 0,-331.0624 1e-4,-662.1249 0,-993.18741 -223.8437,0 -447.6875,0 -671.5312,0 l 0,1 0,1 z"
             id="rect9381"
             style="fill:#ffffff;stroke:#000000;stroke-width:5.9991188;stroke-linecap:butt;stroke-linejoin:miter;stroke-miterlimit:4;stroke-opacity:1;stroke-dasharray:none" />
          <rect
             width="638.3833"
             height="977.14368"
             ry="0"
             x="1001.699"
             y="50.946152"
             id="rect9383"
             style="fill:none;stroke:#000000;stroke-width:5.9991188;stroke-linecap:butt;stroke-linejoin:miter;stroke-miterlimit:4;stroke-opacity:1;stroke-dasharray:none" />
          <rect
             width="561.26318"
             height="940.00085"
             x="1040.259"
             y="88.088974"
             id="rect9385"
             style="fill:none;stroke:#000000;stroke-width:5.9991188;stroke-linecap:butt;stroke-linejoin:miter;stroke-miterlimit:4;stroke-opacity:1;stroke-dasharray:none" />
          <rect
             width="536.98456"
             height="928.57227"
             x="1052.3983"
             y="99.517563"
             id="rect9389"
             style="fill:#4d4d4d;stroke:#000000;stroke-width:5.9991188;stroke-linecap:butt;stroke-linejoin:miter;stroke-miterlimit:4;stroke-opacity:1;stroke-dasharray:none" />
          <rect
             width="139.99944"
             height="42.584454"
             rx="10.42449"
             ry="5.1171874e-06"
             x="1449.3828"
             y="985.505"
             id="rect14645"
             style="color:#000000;fill:#ffffff;stroke:#000000;stroke-width:5.9991188;stroke-linecap:butt;stroke-linejoin:miter;stroke-miterlimit:4;stroke-opacity:1;stroke-dasharray:none;stroke-dashoffset:0;marker:none;visibility:visible;display:inline;overflow:visible;enable-background:accumulate" />
          <path
             d="m 1589.3822,1015.0765 -139.9994,0"
             id="path14647"
             style="color:#000000;fill:#ffffff;fill-opacity:1;fill-rule:nonzero;stroke:#000000;stroke-width:5.9991188;stroke-linecap:butt;stroke-linejoin:miter;stroke-miterlimit:4;stroke-opacity:1;stroke-dasharray:none;stroke-dashoffset:0;marker:none;visibility:visible;display:inline;overflow:visible;enable-background:accumulate" />
          <path
             d="m 1433.9619,1077.7831 -349.4207,-99.6665 -32.1429,-878.599037 105.7375,0 347.8339,68.804517 0,930.00002"
             id="rect9476-5"
             style="color:#000000;fill:#ffffff;stroke:#000000;stroke-width:5.9991188;stroke-linecap:round;stroke-linejoin:round;stroke-miterlimit:4;stroke-opacity:1;stroke-dashoffset:0;marker:none;visibility:visible;display:inline;overflow:visible;enable-background:accumulate" />
          <path
             d="m 1052.3983,101.54515 421.4285,85.91977 0,929.99998 -421.4285,-120.2055 0,-895.71425 z"
             id="rect9476"
             style="color:#000000;fill:#ffffff;fill-opacity:1;fill-rule:nonzero;stroke:#000000;stroke-width:5.9991188;stroke-linecap:round;stroke-linejoin:round;stroke-miterlimit:4;stroke-opacity:1;stroke-dasharray:none;stroke-dashoffset:0;marker:none;visibility:visible;display:inline;overflow:visible;enable-background:accumulate" />
          <path
             d="M 1040.259,88.088974 985.125,34.90239"
             id="path13406"
             style="color:#000000;fill:#ffffff;fill-opacity:1;fill-rule:nonzero;stroke:#000000;stroke-width:4;stroke-linecap:butt;stroke-linejoin:miter;stroke-miterlimit:4;stroke-opacity:1;stroke-dasharray:none;stroke-dashoffset:0;marker:none;visibility:visible;display:inline;overflow:visible;enable-background:accumulate" />
          <path
             d="m 1656.6562,34.90239 -55.134,53.186584"
             id="path13431"
             style="color:#000000;fill:#ffffff;fill-opacity:1;fill-rule:nonzero;stroke:#000000;stroke-width:4;stroke-linecap:butt;stroke-linejoin:miter;stroke-miterlimit:4;stroke-opacity:1;stroke-dasharray:none;stroke-dashoffset:0;marker:none;visibility:visible;display:inline;overflow:visible;enable-background:accumulate" />
          <path
             d="m 1505.9697,168.32208 -32.1429,19.14284"
             id="path13509"
             style="fill:none;stroke:#000000;stroke-width:6;stroke-linecap:butt;stroke-linejoin:miter;stroke-miterlimit:4;stroke-opacity:1;stroke-dasharray:none" />
          <path
             d="m 1505.9697,1098.3221 -32.1429,19.1428"
             id="path13505"
             style="fill:none;stroke:#000000;stroke-width:6;stroke-linecap:round;stroke-linejoin:round;stroke-miterlimit:4;stroke-opacity:1;stroke-dasharray:none" />
          <path
             d="M 1473.8268,1101.4649 1055.263,982.0765"
             id="path14191"
             style="fill:none;stroke:#000000;stroke-width:6.9000001;stroke-linecap:butt;stroke-linejoin:round;stroke-miterlimit:4;stroke-opacity:1;stroke-dasharray:6.9, 27.6;stroke-dashoffset:6.90000004" />
          <path
             d="M 1473.8268,1083.4644 1055.263,964.07603"
             id="path14191-2"
             style="fill:none;stroke:#000000;stroke-width:6;stroke-linecap:butt;stroke-linejoin:round;stroke-miterlimit:4;stroke-opacity:1;stroke-dasharray:none;stroke-dashoffset:59.4" />
        </g>
        <g
           transform="matrix(0.89205503,0,0,0.89205503,-1409.1477,77.097792)"
           id="g14956">
          <path
             d="m -123.85747,697.71428 c -8.40833,-0.19837 -10.72663,13.39803 -2.63754,16.02817 7.39816,3.14589 15.17012,-6.91674 9.53574,-12.91721 -1.69818,-2.0994 -4.24535,-3.32842 -6.8982,-3.11096 z"
             id="path14916"
             style="color:#000000;fill:#000000;fill-opacity:1;fill-rule:nonzero;stroke:#000000;stroke-width:0;stroke-linecap:butt;stroke-linejoin:miter;stroke-miterlimit:4;stroke-opacity:1;stroke-dasharray:none;stroke-dashoffset:6;marker:none;visibility:visible;display:inline;overflow:visible;enable-background:accumulate" />
          <path
             d="m -123.63569,711.74243 c 1.58407,0 2.85933,0 2.85933,10e-6 l 0.4468,5.18519 2.58366,13.84752 c 0,0 -4.30572,0 -5.88979,0 -1.58406,0 -5.76351,0 -5.76351,0 l 2.60129,-13.85037 0.3029,-5.18234 c 0,-10e-6 1.27526,-10e-6 2.85932,-10e-6 z"
             id="rect14953"
             style="color:#000000;fill:#000000;fill-opacity:1;fill-rule:nonzero;stroke:none;stroke-width:0;marker:none;visibility:visible;display:inline;overflow:visible;enable-background:accumulate" />
        </g>
        <rect
           width="6.6071429"
           height="19.464285"
           rx="52.607662"
           ry="5.1727343e-06"
           x="-1478.3419"
           y="712.61218"
           id="rect14960"
           style="color:#000000;fill:#000000;fill-opacity:1;fill-rule:nonzero;stroke:none;stroke-width:0;marker:none;visibility:visible;display:inline;overflow:visible;enable-background:accumulate" />
        <rect
           width="6.6071429"
           height="33.392857"
           rx="52.607662"
           ry="8.8743245e-06"
           x="-1478.3419"
           y="659.82648"
           id="rect14960-9"
           style="color:#000000;fill:#000000;fill-opacity:1;fill-rule:nonzero;stroke:none;stroke-width:0;marker:none;visibility:visible;display:inline;overflow:visible;enable-background:accumulate" />
        <path
           d="m -1581.407,643.98754 c -27.7823,-4.76492 -26.7246,25.78907 -14.1847,32.19265 13.8648,8.55176 40.3082,1.75439 55.3951,6.87592 8.0662,1.96329 15.2373,3.38889 23.3391,4.71153 11.8938,0.11306 16.4353,-12.74282 6.9602,-18.62994 -8.4284,-8.24542 -24.4717,-1.24731 -34.8786,-5.36684 -11.9235,-3.29678 -22.5885,-20.82842 -36.6311,-19.78332 z"
           id="path14984"
           style="fill:#000000;stroke:#000000;stroke-width:1px;stroke-linecap:butt;stroke-linejoin:miter;stroke-opacity:1" />
        <path
           d="m -1585.9458,649.93531 c -10.0536,-0.74037 -10.9551,3.93835 4.0126,4.31469 3.2831,0.0825 11.3987,4.47259 16.2082,9.00889 4.7213,4.45313 9.9579,5.97473 19.6379,9.56461 4.5699,0.6805 8.5632,1.54004 13.1355,2.07163 24.7574,-1.32359 18.5194,-4.70006 9.085,-5.33674 -2.3267,-0.3747 -6.5857,0.79954 -12.4911,0.21654 -6.7986,-0.6712 -14.7949,-3.84226 -17.6091,-5.35553 -3.5194,-0.70281 -9.9366,-7.22041 -16.7316,-10.98019 -5.5315,-3.06071 -11.4337,-3.57102 -15.2474,-3.5039 z"
           id="path14984-1"
           style="fill:#ffffff;stroke:#000000;stroke-width:0.36090806px;stroke-linecap:butt;stroke-linejoin:miter;stroke-opacity:1" />
      </g>
    </g>
  </g>
</svg>
