<?xml version="1.0" encoding="UTF-8" standalone="no"?>
<!-- Created with Inkscape (http://www.inkscape.org/) -->

<svg
   xmlns:dc="http://purl.org/dc/elements/1.1/"
   xmlns:cc="http://creativecommons.org/ns#"
   xmlns:rdf="http://www.w3.org/1999/02/22-rdf-syntax-ns#"
   xmlns:svg="http://www.w3.org/2000/svg"
   xmlns="http://www.w3.org/2000/svg"
   xmlns:sodipodi="http://sodipodi.sourceforge.net/DTD/sodipodi-0.dtd"
   xmlns:inkscape="http://www.inkscape.org/namespaces/inkscape"
   width="246.11987"
   height="428.73398"
   id="svg6881"
   sodipodi:version="0.32"
   inkscape:version="0.48.1 "
   version="1.0"
   sodipodi:docname="Pint_Glass_(Pub).svg">
  <defs
     id="defs6883" />
  <sodipodi:namedview
     id="base"
     pagecolor="#ffffff"
     bordercolor="#666666"
     borderopacity="1.0"
     gridtolerance="10000"
     guidetolerance="10"
     objecttolerance="10"
     inkscape:pageopacity="0.0"
     inkscape:pageshadow="2"
     inkscape:zoom="0.7"
     inkscape:cx="707.00475"
     inkscape:cy="193.25474"
     inkscape:document-units="px"
     inkscape:current-layer="layer1"
     inkscape:window-width="1600"
     inkscape:window-height="848"
     inkscape:window-x="-8"
     inkscape:window-y="-8"
     showgrid="false"
     fit-margin-top="0"
     fit-margin-left="0"
     fit-margin-right="0"
     fit-margin-bottom="0"
     inkscape:window-maximized="1" />
  <metadata
     id="metadata6886">
    <rdf:RDF>
      <cc:Work
         rdf:about="">
        <dc:format>image/svg+xml</dc:format>
        <dc:type
           rdf:resource="http://purl.org/dc/dcmitype/StillImage" />
      </cc:Work>
    </rdf:RDF>
  </metadata>
  <g
     inkscape:label="Layer 1"
     inkscape:groupmode="layer"
     id="layer1"
     transform="translate(790.98274,33.542522)">
    <g
       id="g3053">
      <rect
         y="-31.285713"
         x="-755.71429"
         height="414.28571"
         width="178.57143"
         id="rect2999"
         style="fill:#fbfbfb;fill-opacity:1;fill-rule:nonzero;stroke:none" />
      <path
         style="fill:#f4f4f4"
         d="m -713.42857,394.60217 c -9.99597,-0.74222 -28.92671,-3.40682 -34.47983,-4.85322 -3.2479,-0.84597 -7.40454,-2.46473 -9.23697,-3.59723 -5.83423,-3.60575 -6.56679,-6.29597 -7.39958,-27.17408 -0.41262,-10.34444 -0.99757,-20.01944 -1.29989,-21.5 -1.88201,-9.21679 -6.94221,-78.62662 -12.58151,-172.57828 -1.53529,-25.5782 -2.62396,-32.98324 -6.853,-46.61365 -5.76345,-18.575879 -6.95761,-34.300099 -4.48655,-59.07719 2.07426,-20.798494 2.07389,-20.764077 0.65892,-60.422806 -0.87186,-24.436274 -0.81561,-29.236055 0.35741,-30.5 1.21775,-1.312142 14.81845,-1.53299 108.59826,-1.76342 109.22115,-0.26837 133.15574,0.227966 134.74174,2.794164 0.94583,1.530385 0.57361,16.935891 -1.14692,47.469256 -0.61984,11 -0.87322,22.7 -0.56307,26 3.63683,38.695597 2.9873,56.312057 -2.74688,74.499996 -5.6916,18.05288 -6.04539,20.83693 -10.10264,79.5 -0.79883,11.55 -1.88994,26.625 -2.42471,33.5 -5.69667,73.23663 -7.1944,90.79781 -10.02118,117.5 -1.10627,10.45 -2.01189,21.63199 -2.0125,24.84887 -0.003,13.98692 -6.33833,17.72052 -35.94834,21.18419 -9.44121,1.1044 -23.16917,1.42376 -55.54663,1.29223 -23.65337,-0.0961 -45.03113,-0.32506 -47.50613,-0.50883 z m 17.85174,-49.20367 c 2.22955,-1.41284 3.13144,-13.68901 3.64491,-49.61279 0.26728,-18.7 1.00551,-49.975 1.6405,-69.5 0.635,-19.525 0.84903,-44.39811 0.47562,-55.27358 -0.49109,-14.30299 -0.34517,-20.88754 0.52743,-23.80003 1.13743,-3.7964 1.40494,-4.00932 4.6818,-3.72643 4.46996,0.3859 6.2581,2.94906 3.88596,5.57024 -0.95775,1.05831 -1.70796,3.49985 -1.70796,5.55854 0,3.00459 -0.36318,3.67126 -2,3.67126 -1.33333,0 -2,0.66667 -2,2 0,1.46667 0.66667,2 2.5,2 1.55556,0 2.5,-0.56667 2.5,-1.5 0,-1.16667 1.33333,-1.5 6,-1.5 4.66667,0 6,0.33333 6,1.5 0,0.83333 0.88889,1.5 2,1.5 1.20896,0 2,-0.66667 2,-1.68555 0,-0.92705 0.97844,-2.72705 2.17431,-4 1.8628,-1.98285 3.15674,-2.31445 9.03139,-2.31445 5.17654,0 6.99832,0.36809 7.4334,1.5019 0.31699,0.82605 0.0137,24.56355 -0.67394,52.75 -0.68765,28.18646 -1.35389,55.69899 -1.48054,61.13897 -0.12664,5.43999 -0.78876,22.08999 -1.47136,37 -1.48527,32.44238 -1.33177,35.99218 1.57425,36.40739 3.5584,0.50841 4.87515,-2.44891 5.43459,-12.20563 0.38357,-6.68959 1.10816,-10.22996 2.73093,-13.34331 2.34129,-4.49187 2.25135,-2.60359 2.16729,-45.49823 -0.009,-4.61038 0.56868,-9.06569 1.42635,-11 1.48922,-3.35861 3.78017,-26.70787 5.66634,-57.75109 0.58481,-9.625 1.49613,-21.6267 2.02514,-26.67044 0.52902,-5.04374 1.03952,-11.34374 1.13445,-14 0.1651,-4.61971 0.19769,-4.55725 0.75,1.43739 0.64268,6.97551 2.30806,8.33717 3.0774,2.51617 0.48161,-3.64401 0.65628,-3.79443 4.75,-4.09062 3.65045,-0.26412 4.25,-0.6251 4.25,-2.55887 0,-1.23825 0.66069,-3.12488 1.4682,-4.1925 0.8075,-1.06762 1.4825,-3.62863 1.5,-5.69113 0.0225,-2.65253 0.47079,-3.75 1.5318,-3.75 0.83333,0 1.5,-0.88889 1.5,-2 0,-1.11111 -0.66667,-2 -1.5,-2 -1.16667,0 -1.5,-1.33333 -1.5,-6 0,-4.66667 0.33333,-6 1.5,-6 1.20833,0 1.5,-1.55556 1.5,-8 l 0,-8 4,0 c 3.54507,0 4,-0.27041 4,-2.37756 0,-1.30765 0.72613,-2.98018 1.61362,-3.71674 1.23064,-1.02134 1.48301,-2.442 1.06331,-5.98575 -0.59533,-5.026589 0.37922,-6.843909 3.77307,-7.035949 1.68684,-0.0954 1.73998,-0.19702 0.3,-0.57333 -1.47089,-0.38438 -1.75,-1.65613 -1.75,-7.9737 0,-6.57195 -0.28271,-7.75223 -2.25,-9.39341 -1.28155,-1.06911 -3.83869,-1.89134 -5.94098,-1.91029 -2.03004,-0.0183 -3.9691,-0.48327 -4.30902,-1.03327 -0.33992,-0.55 -3.31444,-1 -6.61004,-1 -5.89223,0 -6.01614,-0.0577 -7.44099,-3.467877 -0.79693,-1.90734 -1.44897,-4.98759 -1.44897,-6.845014 0,-2.054134 -0.74827,-4.054306 -1.91006,-5.105715 -3.01275,-2.726495 -3.51648,-6.513196 -1.27053,-9.550999 1.74719,-2.363197 2.02949,-5.245754 2.7989,-28.579341 0.95386,-28.927049 0.69589,-39.583687 -0.9855,-40.709645 -0.62305,-0.417227 -3.83281,-0.642227 -7.13281,-0.5 l -6,0.258594 -0.30583,3.673888 c -0.1682,2.020639 -0.93904,4.199407 -1.71296,4.841708 -1.1636,0.965698 -1.18461,1.541366 -0.1214,3.326111 0.99295,1.666815 1.12228,6.106704 0.56795,19.497465 -0.71494,17.270834 -1.75355,23.911606 -4.64702,29.712784 -1.20209,2.410073 -1.3985,5.249373 -0.93391,13.5 0.32358,5.746424 0.87254,12.096054 1.21991,14.110284 l 0.63158,3.66223 -8.34916,-0.53765 c -6.5154,-0.41956 -8.84334,-0.98765 -10.59916,-2.58655 -2.82218,-2.56994 -2.84136,-4.441891 -0.0757,-7.385819 1.79023,-1.905593 3.20346,-2.314451 8.00001,-2.314451 5.15902,0 5.82569,-0.228871 5.82569,-2 0,-1.555556 -0.66667,-2 -3,-2 -2.83333,0 -3,-0.222222 -3,-4 l 0,-4 -5,0 c -4.48237,0 -5.01263,-0.232935 -5.12201,-2.25 -0.0671,-1.2375 -0.40461,-8.55 -0.75,-16.25 -0.51579,-11.498672 -0.89599,-14 -2.12799,-14 -1.15598,0 -1.56782,1.548084 -1.79569,6.75 -0.22356,5.103536 -0.65043,6.75 -1.75,6.75 -1.12325,0 -1.45431,-1.479649 -1.45431,-6.5 0,-5.833333 -0.20513,-6.5 -2,-6.5 -1.8643,0 -2,0.666667 -2,9.825686 0,9.187764 -0.16231,9.978168 -2.5,12.174314 -2.42944,2.282337 -2.5,2.733216 -2.5,15.974314 0,9.264422 -0.38409,14.009776 -1.2,14.825686 -0.66,0.66 -3.53686,1.2 -6.39301,1.2 -3.89456,0 -5.35067,0.41084 -5.82354,1.64313 -0.34679,0.90372 -0.92834,1.34532 -1.29233,0.98133 -1.42529,-1.4253 -3.26176,-8.335694 -3.27606,-12.327407 -0.015,-4.182966 1.6511,-9.297053 3.02882,-9.297053 0.87297,0 1.92366,3.651111 1.94246,6.75 0.0111,1.830299 0.57326,2.25 3.01366,2.25 3,0 3,0 3,-6 0,-5.973244 -0.0131,-6 -2.94098,-6 -3.77623,0 -4.37566,-1.085966 -3.16114,-5.726927 1.1308,-4.321046 1.54151,-47.249381 0.52404,-54.773073 -0.78375,-5.795473 -2.47431,-8.13296 -6.52561,-9.022775 -3.28956,-0.722508 -3.92445,-2.477225 -0.89631,-2.477225 1.1,0 2,-0.45 2,-1 0,-0.571042 -2.89546,-0.986358 -6.75,-0.968197 -5.82785,0.02746 -6.51092,0.213288 -5,1.360243 2.40563,1.826136 2.21188,2.347597 -1.14631,3.085179 -5.74673,1.262196 -6.45112,3.196075 -5.73778,15.753064 0.35212,6.198341 0.70107,25.091221 0.77544,41.984177 0.11928,27.090772 -0.0608,31.013604 -1.52611,33.250004 -0.91374,1.39454 -2.66347,2.59681 -3.88829,2.67171 l -2.22695,0.13618 2.25,0.43337 c 3.15636,0.607937 3.08227,4.294267 -0.0863,4.294267 -2.09547,0 -2.32741,0.43811 -2.25,4.25 0.064,3.14947 -0.30211,4.25 -1.41369,4.25 -2.38034,0 -2.08418,-18.283707 0.41511,-25.626503 l 1.91511,-5.626507 -2.26288,-7.037573 c -1.64132,-5.104507 -1.98876,-7.527406 -1.26491,-8.820868 0.6754,-1.206858 0.64366,-2.608409 -0.0982,-4.33592 -0.60289,-1.403944 -1.34548,-6.11717 -1.6502,-10.473835 -0.38666,-5.528064 -0.97756,-8.061008 -1.95587,-8.383939 -1.15205,-0.380285 -1.28078,0.718623 -0.72251,6.167707 0.5221,5.09597 0.31649,7.332056 -0.88844,9.66213 -0.86226,1.66743 -1.83598,5.904127 -2.16381,9.414882 -0.50667,5.425774 -0.27565,6.901654 1.54025,9.839843 2.69287,4.357161 2.74755,8.857462 0.13633,11.220586 -1.1,0.995486 -2.01595,2.752731 -2.03544,3.904988 -0.0195,1.152252 -0.67854,3.220012 -1.46456,4.595012 -0.99962,1.74865 -1.43978,5.891077 -1.46456,13.783237 -0.0315,10.03697 0.23557,11.81806 2.41817,16.12521 1.34948,2.663079 3.09302,5.087339 3.87453,5.387229 1.88902,0.72488 3.18604,9.37984 1.67797,11.19696 -0.62434,0.75228 -0.99362,3.08073 -0.82064,5.17434 0.25031,3.02935 0.97024,4.21761 3.52601,5.81979 4.09313,2.56592 4.10263,4.77454 0.0385,8.95705 l -3.25,3.34469 0.6421,8.35575 c 0.88545,11.52255 3.76784,31.93229 4.85194,34.35574 0.49207,1.1 1.18889,4.8125 1.5485,8.25 1.77217,16.94021 2.95746,-0.39351 2.95746,-43.25 l 0,-9 3.78685,-0.93537 c 3.28244,-0.81077 4.07799,-0.64423 5.97253,1.25031 l 2.18568,2.18567 -3.32858,3.04018 c -2.52296,2.30437 -3.17956,3.57495 -2.71292,5.2497 0.33861,1.21523 1.05019,10.75951 1.5813,21.20951 1.35309,26.62321 2.07897,34.6966 3.32668,37 0.59586,1.1 1.17498,6.5 1.28694,12 0.11197,5.5 0.69869,12.25 1.30383,15 2.04732,9.30375 3.16197,26.88953 3.48612,55 0.27788,24.09777 1.66581,48.4544 3.20533,56.25 0.46534,2.35631 3.60961,3.04104 6.25798,1.36279 z m -28.85174,-225.11279 c 0,-5.73333 0.11111,-6 2.5,-6 2.56727,0 2.59674,-0.0762 2.98034,-7.71241 0.17113,-3.4066 1.35492,-3.85109 2.46693,-0.92628 0.55178,1.45128 1.46437,2.63869 2.02798,2.63869 0.56361,0 1.02475,2.25 1.02475,5 0,4.88889 -0.0667,5 -3,5 -2.83333,0 -3,0.22222 -3,4 0,3.6 -0.25,4 -2.5,4 -2.38889,0 -2.5,-0.26667 -2.5,-6 z m 51,56 c 0,-1.33333 -0.66667,-2 -2,-2 -1.33333,0 -2,0.66667 -2,2 0,1.33333 0.66667,2 2,2 1.33333,0 2,-0.66667 2,-2 z m 94.06414,-132.33586 c -0.75219,-0.752181 -1.06414,0.264823 -1.06414,3.469197 0,5.894869 1.40676,7.30975 1.81414,1.824614 0.17277,-2.326321 -0.16473,-4.708535 -0.75,-5.293811 z"
         id="path6877"
         inkscape:connector-curvature="0" />
      <path
         style="fill:#ebebeb"
         d="m -712.92857,394.1739 c -23.42111,-1.76705 -38.81489,-4.86701 -44.62671,-8.98681 -4.71962,-3.34558 -5.60865,-6.99481 -6.30008,-25.86009 -0.35193,-9.60229 -0.84245,-18.37729 -1.09005,-19.5 -0.39934,-1.81083 -3.75115,-39.67423 -6.46588,-73.04129 -0.53698,-6.6 -2.11233,-30.9 -3.50078,-54 -4.25444,-70.78213 -5.07407,-79.89934 -8.04601,-89.5 -5.64963,-18.25073 -6.23621,-20.90265 -7.3197,-33.091999 -0.94242,-10.60227 -0.84721,-15.10569 0.60254,-28.499993 1.91049,-17.651125 2.05582,-29.962966 0.79134,-67.039217 l -0.8571,-25.131213 2.40622,-1.368787 c 1.99612,-1.135504 21.15358,-1.368787 112.40621,-1.368787 103.33007,0 125.14185,0.424548 128.50191,2.50118 1.76923,1.093442 1.55269,19.018857 -0.58311,48.271032 -1.19366,16.348633 -1.274,22.311418 -0.37722,28 2.86371,18.165709 3.24856,46.420485 0.79308,58.227784 -0.57189,2.75 -2.77434,10.50943 -4.89433,17.24318 -4.27581,13.58134 -4.74548,17.18113 -7.92707,60.75682 -4.74387,64.97296 -10.79584,142.07818 -11.45952,146 -0.9255,5.46906 -2.68505,24.81187 -3.45673,38 -0.5199,8.88513 -1.28346,14.00288 -2.4123,16.16836 -3.38874,6.50069 -16.17781,10.15264 -43.07993,12.30157 -14.9294,1.19256 -76.93637,1.13812 -93.10478,-0.0817 z m 19.47104,-16.84913 c 0.80907,-0.51167 1.18374,-1.21762 0.83259,-1.56877 -1.04362,-1.04362 -8.5641,-1.77673 -10.50597,-1.02415 -1.70335,0.66015 -1.69583,0.77165 0.14347,2.12528 2.19387,1.61459 7.31868,1.86607 9.52991,0.46764 z m 0.24752,-28.85762 c 1.68234,-1.68234 2.73287,-13.92339 3.24282,-37.78625 0.28085,-13.14236 0.78925,-29.14258 1.12978,-35.55606 0.68416,-12.88555 0.62581,-12.79383 8.15884,-12.82548 2.58788,-0.0109 3.25,0.39381 3.25,1.98635 0,1.86498 0.66667,2 9.875,2 5.43125,0 11.22322,0.26964 12.87105,0.59921 2.88338,0.57668 3.01544,0.84066 3.51139,7.01918 0.28343,3.53098 0.15801,11.47384 -0.27872,17.65079 -0.43673,6.17695 -0.9481,20.21606 -1.13638,31.19803 l -0.34234,19.96721 2.4762,1.23777 c 2.10138,1.05042 2.93389,0.94632 5.5,-0.68775 2.96654,-1.88908 3.0238,-2.08231 3.0238,-10.20499 0,-6.90208 0.45632,-9.27761 2.743,-14.27945 2.66778,-5.83545 2.7542,-6.59325 3.15131,-27.63133 0.24376,-12.91429 0.84841,-22.45369 1.50045,-23.67202 1.79373,-3.35162 4.1092,-5.19665 6.52168,-5.19665 1.25047,0 3.08807,-0.9 4.08356,-2 0.99549,-1.1 2.86523,-2 4.15499,-2 2.19946,0 2.34501,-0.37241 2.34501,-6 l 0,-6 4.42857,0 c 5.15885,0 7.57143,-1.88523 7.57143,-5.91644 0,-3.23368 3.04986,-6.41093 5.6756,-5.91266 2.38006,0.45165 2.86837,4.75446 1.32596,11.68392 -0.74168,3.33213 -0.83776,5.70898 -0.25435,6.29239 1.84155,1.84155 2.94102,-1.75497 4.63054,-15.14721 2.61913,-20.76098 4.70236,-34.00852 6.21152,-39.5 1.61953,-5.8931 5.41073,-31.69276 5.41073,-36.8208 0,-1.95864 0.39031,-3.80239 0.86736,-4.09722 1.01112,-0.62491 2.37252,-8.72985 2.1974,-13.08198 -0.61605,-15.31069 0.79295,-22.65768 5.94802,-31.01487 2.59612,-4.20872 7.1608,-19.797829 7.90158,-26.985129 0.34012,-3.3 0.95506,-6.5301 1.36654,-7.178 0.45387,-0.71465 -0.002,-1.41602 -1.15841,-1.78312 -1.94384,-0.61695 -3.08436,-3.27967 -3.10884,-7.258087 -0.008,-1.22056 -0.93424,-3.9854 -2.05942,-6.144091 -1.96243,-3.765012 -2.02221,-5.059572 -1.46765,-31.780794 0.31797,-15.320748 0.66316,-32.355905 0.7671,-37.855905 0.10393,-5.5 -0.0977,-10.725529 -0.44813,-11.612288 -0.55152,-1.395728 -4.03993,-1.711518 -25.97132,-2.351064 -14.02484,-0.408982 -26.20136,-1.201754 -27.27668,-1.775894 -1.2811,-0.684004 -5.19657,-0.747729 -11.5,-0.187167 -15.05206,1.338576 -58.24076,0.529922 -59.97165,-1.122893 -1.09917,-1.049596 -1.15127,-1.666998 -0.23396,-2.772297 0.96756,-1.165837 0.61434,-1.535141 -1.9609,-2.050189 -4.13538,-0.827076 -14.7339,-0.629321 -17.89104,0.333824 -2.15628,0.657813 -2.25939,0.865051 -0.75,1.507309 0.9625,0.40955 1.75,1.07426 1.75,1.477133 0,2.208743 -6.77847,3.388303 -23.27088,4.049496 -9.77398,0.391847 -18.06009,1.001665 -18.41358,1.355151 -0.35348,0.353487 -1.51238,3.006593 -2.57532,5.895791 -1.77042,4.812201 -1.9303,8.082843 -1.90503,38.969125 l 0.0276,33.716037 -2.49567,4.783963 c -5.43312,10.41474 -6.3861,18.65637 -3.3283,28.78396 3.45642,11.447879 4.29481,13.654409 6.02276,15.851149 1.06614,1.35537 1.93843,3.37927 1.93843,4.49756 0,1.11829 0.45,2.31137 1,2.65129 0.55,0.33992 1,1.73882 1,3.10868 0,1.36985 0.63108,3.71102 1.40241,5.2026 0.93169,1.80169 1.61864,8.07846 2.04663,18.70034 0.35433,8.79361 1.08347,17.78838 1.62031,19.98838 0.53684,2.2 1.61391,8.5 2.39348,14 2.62001,18.48466 3.45055,21.5 5.92187,21.5 0.69667,0 2.31912,1.12028 3.60546,2.48952 2.1947,2.33615 2.23624,2.60283 0.67431,4.32874 -2.20341,2.43475 -2.10087,4.47683 0.33553,6.68174 1.35511,1.22636 2,3.07997 2,5.74861 0,3.02321 0.43991,4.05367 1.89272,4.43359 1.12164,0.29331 2.13804,1.72161 2.49492,3.50598 0.33121,1.65607 1.72949,4.35074 3.10728,5.98815 1.51735,1.80327 2.507,4.22831 2.50995,6.1504 0.003,1.7453 1.58476,7.44827 3.51575,12.67327 1.93099,5.225 3.73818,10.12375 4.01598,10.88612 0.41983,1.15213 0.79699,1.12532 2.23425,-0.15883 0.95103,-0.84971 2.85415,-1.69847 4.22915,-1.88611 2.1351,-0.29138 2.58755,-0.99801 3.09981,-4.84118 0.32989,-2.475 0.67113,-4.275 0.7583,-4 0.0872,0.275 0.82098,5.45 1.63067,11.5 1.85848,13.88645 1.89207,20.96717 0.11283,23.78518 -1.14069,1.80665 -1.24364,5.07133 -0.55865,17.71482 0.46187,8.525 1.30338,17.3 1.87003,19.5 0.56665,2.2 1.51819,8.7092 2.11453,14.46488 0.59634,5.75568 1.60073,11.08719 2.23198,11.8478 1.21834,1.46801 7.28743,1.04039 8.95906,-0.63124 z m 64.28144,-376.181436 c -4.48821,-1.142057 -14.29417,-1.142057 -15,0 -0.397,0.642358 2.71127,0.957686 8.69098,0.881685 6.43098,-0.08174 8.38152,-0.354323 6.30902,-0.881685 z"
         id="path6875"
         inkscape:connector-curvature="0" />
      <path
         style="fill:#e4e4e4"
         d="m -707.05936,394.18023 c -18.22882,-1.04674 -39.62434,-4.20237 -45.43339,-6.70098 -5.94642,-2.5577 -9.67529,-7.05177 -10.32875,-12.44829 -0.28273,-2.33489 -0.74682,-12.17422 -1.03131,-21.86518 -0.2845,-9.69097 -0.97919,-20.71597 -1.54378,-24.5 -1.95845,-13.12624 -6.62576,-74.75825 -10.06285,-132.88007 -3.88288,-65.66049 -3.34022,-61.5603 -11.58066,-87.5 -2.56045,-8.05992 -2.70513,-9.587249 -2.79436,-29.499999 -0.073,-16.283054 0.32753,-23.48907 1.78304,-32.081439 1.69215,-9.989298 1.75594,-12.403921 0.64727,-24.5 -1.38912,-15.155983 -2.37036,-47.272869 -1.54694,-50.632722 0.80173,-3.271378 5.33008,-4.02378 28.02252,-4.656046 25.01076,-0.696861 208.00164,0.954408 211.78031,1.911058 1.52917,0.387141 3.1402,1.436327 3.58007,2.331523 0.43987,0.895196 0.22995,11.527629 -0.46649,23.627629 -2.82447,49.072387 -2.79653,47.416819 -0.95333,56.5 1.28151,6.315161 1.71875,13.38376 1.70107,27.499997 -0.0259,20.66599 -0.32983,22.533009 -7.40719,45.499999 -3.77272,12.24299 -3.73292,11.88492 -8.22606,74 -2.62346,36.26774 -4.55984,61.43341 -5.96327,77.5 -0.76869,8.8 -1.68725,20.5 -2.04125,26 -0.35399,5.5 -1.7888,20.125 -3.18846,32.5 -1.39966,12.375 -2.83071,27.69717 -3.18012,34.04926 -0.48024,8.73065 -1.08305,12.23135 -2.46999,14.34411 -5.77742,8.80081 -33.47872,12.68535 -88.66529,12.4335 -14.575,-0.0665 -32.85885,-0.48607 -40.63078,-0.93235 z m 15.9594,-16.82313 c 1.56827,-1.56827 -0.32238,-2.66162 -5.93222,-3.43054 -7.62438,-1.04503 -11.75305,1.97376 -6.04406,4.41929 2.72704,1.16818 10.45758,0.52995 11.97628,-0.98875 z m -4.56068,-11.07139 c -1.39993,-2.24164 -2.97194,-2.49637 -5.86168,-0.94983 -2.87524,1.53879 -1.36307,2.94983 3.16124,2.94983 3.69913,0 3.87029,-0.12676 2.70044,-2 z m 0.65028,-5.60699 c 3.08011,-1.18195 1.52405,-2.50375 -2.59049,-2.20051 -4.89101,0.36047 -6.62798,2.8075 -1.99284,2.8075 1.65085,0 3.71335,-0.27314 4.58333,-0.60699 z m 2.0426,-11.01634 c 0.89341,-0.34284 2.54626,-2.43036 3.67299,-4.63894 l 2.0486,-4.01559 15.77316,0.50329 c 14.40524,0.45965 15.95838,0.68851 17.9088,2.63893 1.1746,1.1746 2.97844,2.13564 4.00852,2.13564 3.31757,0 11.34809,-4.12899 11.86345,-6.09974 0.27332,-1.04515 1.34445,-1.90026 2.3803,-1.90026 1.5306,0 1.88337,-0.74924 1.88337,-4 0,-2.88889 0.41667,-4 1.5,-4 1.03779,0 1.5,-1.04263 1.5,-3.38364 0,-2.67902 0.83357,-4.13671 4.00288,-7 2.20159,-1.989 5.04058,-3.61636 6.30887,-3.61636 5.19469,0 6.02348,-1.83354 6.26876,-13.8684 0.21641,-10.61841 0.35944,-11.29545 3.07323,-14.54747 4.54459,-5.44591 5.64196,-5.41117 5.00327,0.15839 -1.27626,11.12942 -1.72646,24.25748 -0.83186,24.25748 1.18434,0 2.14342,-3.48667 2.1612,-7.85692 0.0149,-3.66458 2.1347,-13.67385 5.21899,-24.64308 1.08253,-3.85 2.84233,-10.15 3.91066,-14 1.06834,-3.85 2.82937,-9.7 3.91342,-13 1.08404,-3.3 1.9709,-6.79713 1.97079,-7.77141 -1.2e-4,-0.97427 1.069,-6.37427 2.37582,-12 1.30681,-5.62572 2.92776,-12.92859 3.6021,-16.22859 0.67434,-3.3 1.86995,-8.925 2.65692,-12.5 0.78697,-3.575 1.80951,-8.975 2.27231,-12 1.84832,-12.08127 5.25407,-31.45218 5.63948,-32.07579 0.22503,-0.36411 0.86875,-8.70851 1.43048,-18.54311 0.87469,-15.31356 1.30861,-18.27016 3.02201,-20.59061 1.10037,-1.49023 2.01498,-3.29023 2.03247,-4 0.0175,-0.70977 0.65995,-2.11949 1.42769,-3.13272 0.76773,-1.01323 1.70663,-3.71323 2.08644,-6 0.37981,-2.28677 1.25516,-5.28277 1.94523,-6.65777 1.56932,-3.126989 3.50884,-14.227509 3.50884,-20.082289 0,-2.43015 -0.6962,-7.56829 -1.54711,-11.418077 -1.83529,-8.303423 -3.76644,-24.975038 -3.70668,-31.99963 0.0234,-2.75 0.57653,-16.422478 1.22917,-30.383285 1.04081,-22.264271 1.00289,-25.567018 -0.30864,-26.87855 -2.0707,-2.070695 -39.77363,-3.465479 -89.11658,-3.296783 -37.3253,0.12761 -44.13056,-0.193262 -42.99704,-2.027335 0.33498,-0.542007 18.16044,-0.905432 43.17026,-0.880155 28.17517,0.02848 42.95131,-0.308579 43.63815,-0.995419 1.20784,-1.207841 0.57977,-1.222147 -63.36153,-1.443279 -39.43166,-0.136368 -85.64775,0.755049 -64.38957,1.241948 10.145,0.232362 16.52842,1.245237 16.09456,2.553766 -0.24495,0.738754 -7.85358,1.35083 -22.78636,1.833052 -25.1484,0.812111 -28.04913,1.29558 -29.03896,4.839965 -1.10303,3.94975 -0.96772,29.85693 0.25163,48.176365 1.21874,18.310353 0.99037,20.489513 -3.7475,35.75971 -2.93286,9.452627 -3.39544,20.238387 -1.05936,24.700337 0.92156,1.76019 1.67556,4.56181 1.67556,6.22583 0,1.66402 0.89832,4.498869 1.99626,6.299659 1.09795,1.80079 1.99795,4.00098 2,4.88931 0.002,0.88833 0.83205,2.68833 1.84442,4 1.96799,2.5498 4.33937,11.44934 4.36592,16.38486 0.0429,7.97833 2.03331,29.92225 3.40137,37.5 0.84402,4.675 2.19785,12.1 3.00853,16.5 3.33689,18.11115 13.13251,60.45337 15.15304,65.5 0.55052,1.375 1.95258,3.35724 3.1157,4.40499 1.16312,1.04774 2.11476,3.05549 2.11476,4.46167 0,1.80634 1.58777,4.03537 5.41005,7.59502 7.54975,7.03101 8.40777,9.84969 8.83939,29.03832 0.27951,12.42669 0.74917,16.89028 2.10295,19.98635 2.27798,5.2097 5.45747,8.51365 8.19294,8.51365 2.04441,0 2.24463,0.61269 2.88808,8.83798 0.47365,6.05465 1.44457,10.46366 3.08298,14 2.35731,5.088 2.45561,5.16202 6.85582,5.16202 2.45532,0 5.19519,-0.2805 6.0886,-0.62333 z m 55.53919,-24.29488 c 0,-1.95285 1.25164,-4.0443 2.10478,-3.51703 1.48484,0.91768 1.00518,4.43524 -0.60478,4.43524 -0.825,0 -1.5,-0.4132 -1.5,-0.91821 z m -74,10.91821 c 0,-1.65 -0.46412,-3 -1.03139,-3 -1.38088,0 -2.32224,2.63606 -1.60698,4.5 0.98919,2.57778 2.63837,1.64017 2.63837,-1.5 z m 121.78352,-363.733666 c -2.59406,-0.205246 -7.09406,-0.207376 -10,-0.0047 -2.90594,0.202637 -0.78352,0.370566 4.71648,0.373169 5.5,0.0026 7.87758,-0.163194 5.28352,-0.368439 z"
         id="path6873"
         inkscape:connector-curvature="0" />
      <path
         style="fill:#dbdbdb"
         d="m -702.42857,394.18887 c -27.92205,-1.54587 -45.30394,-4.25947 -52.37813,-8.17711 -6.8684,-3.80368 -7.93361,-6.83758 -8.29505,-23.62565 -0.32521,-15.10589 -0.91056,-23.30983 -4.32378,-60.6004 -3.03965,-33.20931 -3.95872,-44.52304 -4.99593,-61.5 -0.52083,-8.525 -1.60676,-26.075 -2.41316,-39 -0.80641,-12.925 -1.97829,-32.725 -2.60419,-44 -1.32277,-23.82838 -1.8756,-27.21482 -7.08793,-43.4179 -2.13766,-6.64516 -4.40139,-15.907099 -5.0305,-20.582099 -1.38144,-10.26562 -0.49353,-34.634625 1.60319,-43.999997 1.87656,-8.381984 1.87061,-15.249945 -0.0348,-40.128168 -1.4655,-19.135014 -1.26793,-35.913805 0.45572,-38.702725 1.65995,-2.685862 13.98512,-3.043109 105.65698,-3.062483 103.18397,-0.02181 132.61258,0.62985 134.97149,2.988762 1.22936,1.229365 1.2892,4.584777 0.40877,22.922397 -2.21229,46.07768 -2.27037,53.018004 -0.50028,59.783005 2.02129,7.725053 2.40335,37.377899 0.60688,47.102428 -0.6506,3.52177 -3.17317,12.8135 -5.60572,20.64829 -3.90474,12.57641 -4.54261,15.98478 -5.44539,29.09678 -0.56241,8.16844 -1.44741,19.35171 -1.96666,24.85171 -0.51924,5.5 -1.41722,16.75 -1.99551,25 -2.36438,33.73102 -4.10113,56.14095 -4.53369,58.5 -0.25212,1.375 -1.13818,11.725 -1.96902,23 -2.65872,36.08043 -3.49595,46.33198 -4.03858,49.45098 -1.09945,6.31944 -2.62967,22.52106 -3.35762,35.54971 -0.86816,15.53792 -1.75617,17.67313 -8.76022,21.06373 -13.26799,6.42293 -68.37236,9.60662 -118.36692,6.83874 z m 33.77643,-4.63005 c -2.04796,-0.21488 -5.64796,-0.21785 -8,-0.007 -2.35204,0.21125 -0.67643,0.38706 3.72357,0.39069 4.4,0.004 6.32439,-0.16921 4.27643,-0.38408 z m -23.02643,-0.98936 c -1.5125,-0.22913 -3.9875,-0.22913 -5.5,0 -1.5125,0.22912 -0.275,0.41659 2.75,0.41659 3.025,0 4.2625,-0.18747 2.75,-0.41659 z m -0.25,-9.81259 c 2.39225,-0.86183 8.42133,-1.51842 15,-1.63355 l 11,-0.19251 -12,-0.65091 c -6.6,-0.35801 -13.48962,-1.23163 -15.31026,-1.94139 -3.22909,-1.25882 -13.49368,-1.08219 -14.83108,0.25521 -1.08167,1.08167 1.71397,3.64811 5.0171,4.6058 4.42794,1.2838 6.56848,1.19862 11.12424,-0.44265 z m 43.22917,-2.07533 c -0.3323,-0.33229 -1.19479,-0.36781 -1.91667,-0.0789 -0.79773,0.31922 -0.56078,0.55618 0.60417,0.60416 1.05416,0.0434 1.64479,-0.19293 1.3125,-0.52522 z m 5,0 c -0.3323,-0.33229 -1.19479,-0.36781 -1.91667,-0.0789 -0.79773,0.31922 -0.56078,0.55618 0.60417,0.60416 1.05416,0.0434 1.64479,-0.19293 1.3125,-0.52522 z m 9.02083,-1.08516 c -0.9625,-0.25152 -2.5375,-0.25152 -3.5,0 -0.9625,0.25153 -0.175,0.45733 1.75,0.45733 1.925,0 2.7125,-0.2058 1.75,-0.45733 z m -56.75,-7.25165 c 0,-0.51754 -0.49804,-1.24879 -1.10676,-1.625 -0.77106,-0.47654 -0.69522,-0.9383 0.25,-1.52233 1.63125,-1.00792 1.93798,-6.11305 0.42937,-7.14638 -1.8819,-1.28901 -9.00106,-0.75644 -11.07261,0.82832 -2,1.53003 -2,1.53003 0,3.01821 1.98109,1.47411 1.97732,1.50535 -0.39918,3.30499 -2.30171,1.74301 -2.32202,1.86162 -0.5,2.91959 2.32245,1.34853 12.39918,1.52944 12.39918,0.2226 z m 1,-19.05902 c 6.10701,-2.40716 22.4946,-2.70109 46.84586,-0.84024 12.43182,0.95001 16.0335,0.92404 18.96708,-0.13676 1.99166,-0.7202 6.00428,-1.44699 8.91691,-1.6151 2.91264,-0.16811 5.71044,-0.56198 6.21734,-0.87526 1.18686,-0.73352 3.96492,-10.29681 5.17639,-17.8194 0.5191,-3.22331 2.01714,-8.63991 3.32897,-12.0369 1.31183,-3.39699 2.67137,-9.10134 3.02119,-12.67634 0.37246,-3.80632 1.63038,-8.42458 3.03542,-11.14413 3.19013,-6.17469 8.77823,-27.2241 12.8373,-48.35587 2.46732,-12.84504 7.89991,-47.31819 8.78616,-55.75363 0.44803,-4.2645 1.4836,-11.9145 2.30126,-17 0.81765,-5.0855 1.9778,-15.40419 2.5781,-22.93041 1.04478,-13.0988 3.04683,-22.66033 6.26912,-29.94045 0.82172,-1.85653 2.75823,-7.87551 4.30334,-13.37551 3.96856,-14.126509 4.40833,-28.703919 1.35753,-44.999996 -2.58439,-13.804761 -2.68965,-20.26138 -0.8851,-54.291782 1.10762,-20.887479 1.08878,-24.481671 -0.13437,-25.646761 -1.74088,-1.658247 -23.89272,-3.627511 -32.12615,-2.855966 -3.13701,0.293965 -7.41201,0.20472 -9.5,-0.198323 -6.8062,-1.313793 -0.7265,-2.307168 14.12043,-2.307168 18.64226,0 19.86794,-1.728972 1.90858,-2.692272 -18.64493,-1.000072 -171.52958,-0.921283 -177.82536,0.09164 l -5,0.804447 4.5,0.723968 c 2.475,0.398183 8.4375,0.757324 13.25,0.798092 13.76943,0.116644 10.21899,1.692797 -5.5,2.441627 -15.16399,0.722391 -22.25879,1.74129 -23.95819,3.440681 -0.72975,0.729756 -0.65614,6.14806 0.24278,17.869566 0.70955,9.252237 1.30058,24.472249 1.3134,33.822249 0.0202,14.76084 -0.33043,18.631626 -2.66234,29.387518 -4.46103,20.576429 -3.51943,29.178529 6.08746,55.61248 2.98592,8.21594 4.73363,17.9558 5.74207,32 0.87723,12.21694 6.06452,47.11026 11.00095,74 0.70679,3.85 2.05297,11.275 2.99152,16.5 0.93856,5.225 2.27872,10.625 2.97815,12 2.31022,4.54166 7.53052,18.47108 7.52229,20.07186 -0.004,0.86452 0.62373,3.56452 1.39594,6 0.77222,2.43548 1.91068,9.82814 2.52992,16.42814 1.1537,12.29655 1.96213,16.89339 4.66048,26.5 0.84968,3.025 2.01006,7.3 2.57863,9.5 3.24983,12.57479 4.44233,13.8719 15.24965,16.58747 2.70749,0.68032 6.98249,2.0429 9.5,3.02796 6.00056,2.34792 9.89872,2.31994 16.07729,-0.11543 z m 113,-7 c 0,-0.55 -0.675,-1 -1.5,-1 -0.825,0 -1.5,0.45 -1.5,1 0,0.55 0.675,1 1.5,1 0.825,0 1.5,-0.45 1.5,-1 z"
         id="path6871"
         inkscape:connector-curvature="0" />
      <path
         style="fill:#d3d3d3"
         d="m -697.92857,394.27193 c -30.22797,-1.54404 -47.92786,-4.08986 -56.18989,-8.08195 -7.14124,-3.45053 -8.00476,-6.59261 -8.90554,-32.40427 -0.42226,-12.1 -0.82093,-25.15968 -0.88592,-29.0215 -0.065,-3.86183 -0.38831,-7.46183 -0.71848,-8 -0.33017,-0.53818 -0.8965,-3.6785 -1.25852,-6.9785 -0.36201,-3.3 -1.07483,-9.15 -1.58403,-13 -1.62054,-12.25267 -6.23777,-77.80013 -7.9246,-112.5 -0.60158,-12.375 -1.53076,-27.225 -2.06484,-33 -0.53409,-5.775 -0.97042,-12.70148 -0.96962,-15.39219 0.001,-4.90084 -1.94252,-12.5781 -6.73738,-26.60781 -1.40978,-4.125 -3.0222,-10.424999 -3.58316,-13.999999 -1.59782,-10.18291 -1.22981,-34.233547 0.67112,-43.860465 1.8531,-9.384675 2.05884,-21.810894 0.65908,-39.806877 -0.86204,-11.082908 -1.14296,-25.713942 -0.68582,-35.719998 0.13628,-2.983017 0.83461,-4.378817 3.00181,-6 l 2.8242,-2.112657 112.6758,0.269664 c 79.63673,0.190592 114.21521,0.60378 117.92579,1.409129 l 5.25,1.139467 -0.0258,15.09087 c -0.0142,8.299978 -0.46153,19.572595 -0.99408,25.050259 -1.60933,16.552888 -1.43667,36.182005 0.38299,43.540611 2.10655,8.518833 2.22366,37.567697 0.19013,47.162196 -0.77662,3.66421 -3.26725,12.56473 -5.53474,19.77893 -3.20012,10.18148 -4.33636,15.73966 -5.07753,24.8378 -3.26203,40.04307 -4.17883,51.94802 -5.48472,71.22107 -0.80123,11.825 -2.33956,31.625 -3.4185,44 -1.07895,12.375 -2.45662,29.475 -3.06151,38 -0.60488,8.525 -1.55583,19.325 -2.11323,24 -0.55739,4.675 -1.58725,14.01515 -2.28857,20.7559 -0.96504,9.27542 -1.72744,12.75568 -3.13502,14.31105 -1.57926,1.74505 -1.64188,2.18989 -0.41501,2.94814 1.07369,0.66357 1.44883,3.06919 1.46024,9.36395 0.0128,7.04697 -0.33666,8.94586 -2.07867,11.29597 -4.77846,6.44651 -15.35121,9.45116 -39.83065,11.31937 -19.20253,1.4655 -60.732,1.9799 -80.07533,0.99184 z m 68,-5.04901 c 2.52908,-0.53092 -3.90618,-0.76569 -17.5,-0.63845 -11.825,0.11068 -32.75,-0.11083 -46.5,-0.49225 -17.61936,-0.48875 -23.22865,-0.40272 -19,0.29139 13.9651,2.29232 73.22392,2.89155 83,0.83931 z m -29.5,-10.8516 c 17.325,-0.47604 32.85,-1.32636 34.5,-1.88961 2.79407,-0.9538 2.62246,-1.03495 -2.5,-1.18219 -3.025,-0.087 -17.65,-0.10112 -32.5,-0.0315 -22.06352,0.10346 -28.16094,-0.17284 -33.34974,-1.51123 -3.87064,-0.99838 -7.38448,-1.34476 -9,-0.88717 -1.45765,0.41287 -6.70026,1.02399 -11.65026,1.35804 l -9,0.60736 6,1.2247 c 3.3,0.67358 7.8,1.86386 10,2.64506 2.49125,0.88462 6.26312,1.25283 10,0.97621 3.3,-0.24429 20.175,-0.83364 37.5,-1.30967 z m -32.50485,-9.00497 c 1.09733,-0.42834 1.99733,-1.57619 2,-2.55078 0.004,-1.64089 1.52141,-1.76586 20.50485,-1.6892 11.275,0.0455 21.33564,0.1 22.35699,0.12106 1.30952,0.027 1.6701,0.52531 1.22306,1.69026 -0.57498,1.49838 0.3681,1.58781 10.14302,0.96181 5.92731,-0.3796 12.35193,-1.07692 14.27693,-1.54962 l 3.5,-0.85945 -4.5,-0.25989 c -4.80134,-0.2773 -5.08507,-0.26147 -12.00715,0.66983 -3.53319,0.47536 -5.42874,0.12604 -8.77191,-1.61652 -2.71982,-1.41765 -5.25303,-2.03092 -6.99285,-1.69293 -2.48656,0.48307 -18.08774,-1.18004 -19.19913,-2.04666 -0.25907,-0.20201 0.19093,-0.78594 1,-1.29761 0.99316,-0.62809 -0.71156,-0.93529 -5.24758,-0.94563 -5.26787,-0.012 -6.60559,0.27922 -6.19518,1.34873 0.34999,0.91206 -0.53021,1.57476 -2.65639,2 -5.13629,1.02726 -6.12251,0.81847 -5.49361,-1.16303 0.43922,-1.38387 -0.47442,-2.30688 -3.95936,-4 -5.0099,-2.434 -9.47011,-2.881 -9.48922,-0.95101 -0.0143,1.4386 -6.27601,5.75 -8.35115,5.75 -0.76537,0 -1.95178,0.675 -2.63647,1.5 -0.68469,0.825 -2.06323,1.5 -3.06343,1.5 -1.00019,0 -2.06939,0.4059 -2.376,0.90199 -0.3066,0.4961 2.02934,1.2082 5.19098,1.58245 3.16165,0.37426 7.09845,1.28181 8.74845,2.01679 3.34993,1.49221 8.96221,1.7633 11.99515,0.57941 z m -13.98507,-6.09695 c 0.34547,-0.55897 1.04702,-0.75742 1.55902,-0.44098 1.38704,0.85723 1.12841,1.45729 -0.62812,1.45729 -0.85746,0 -1.27636,-0.45734 -0.9309,-1.01631 z m 64.48992,-2.98369 c 0,-0.55 -1.9125,-0.94676 -4.25,-0.88169 -3.98861,0.11104 -4.06549,0.16527 -1.25,0.88169 4.3905,1.11719 5.5,1.11719 5.5,0 z m -51.21788,-9.68427 c 4.76095,-2.15681 38.01184,-3.06324 50.65418,-1.38086 9.49407,1.26342 34.28538,-0.19233 38.42895,-2.25656 2.63069,-1.31055 4.53659,-5.99817 6.17122,-15.17831 0.58761,-3.3 2.37791,-11.625 3.97845,-18.5 1.60055,-6.875 3.63217,-15.65 4.51473,-19.5 0.88255,-3.85 2.03899,-8.575 2.56987,-10.5 0.53088,-1.925 1.36788,-5.975 1.86001,-9 0.49212,-3.025 2.052,-11.67071 3.46638,-19.21269 2.32844,-12.41597 7.95555,-55.01637 12.05821,-91.28731 2.8601,-25.2857 4.45886,-34.51635 7.13829,-41.21388 1.45384,-3.63403 3.23288,-8.67256 3.95341,-11.19673 0.72054,-2.52416 2.4223,-8.25906 3.7817,-12.744209 3.87463,-12.78381 3.98708,-18.6334 0.67948,-35.345177 -1.57841,-7.975 -3.14678,-16.549126 -3.48525,-19.053613 -0.5879,-4.350176 0.73478,-40.891783 2.06968,-57.17881 0.72396,-8.833035 1.48391,-8.054888 -9.62143,-9.851858 l -7.5,-1.213586 4.5,-1.571213 4.5,-1.571213 -5,-0.684006 c -8.27839,-1.132493 -142.8759,-2.222259 -173.75,-1.406763 -27.03255,0.714026 -34.20338,1.635396 -24.63543,3.165374 5.56084,0.889213 3.05151,2.238667 -5.6788,3.053916 -4.43134,0.413805 -6.80058,1.098881 -7.17504,2.074696 -0.30748,0.801288 0.0336,15.107649 0.75795,31.791914 1.19669,27.56347 1.16567,31.093819 -0.33949,38.640095 -3.08014,15.442677 -3.67919,20.148307 -3.67919,28.900754 0,11.3221 1.82886,20.36859 7.39825,36.595549 4.73348,13.79146 5.39824,17.61938 8.12881,46.80876 0.87466,9.35 2.8877,26.225 4.47341,37.5 1.58572,11.275 3.60375,25.9 4.4845,32.5 0.88075,6.6 2.26468,14.925 3.0754,18.5 2.13352,9.4082 5.31986,21.80763 6.9383,27 0.77146,2.475 1.66756,7.2 1.99136,10.5 0.32379,3.3 0.98861,7.575 1.47738,9.5 2.6716,10.52206 6.09211,26.3708 7.01421,32.5 1.51168,10.04802 3.99717,17.35849 6.13213,18.0361 0.99053,0.31438 7.47755,0.93977 14.4156,1.38974 6.93804,0.44998 13.12223,1.32574 13.74264,1.94615 1.62941,1.62941 6.222,1.38634 10.51013,-0.55626 z m 115.02751,-8.06573 c -0.18536,-0.9625 -0.99969,-1.75 -1.80963,-1.75 -0.80994,0 -1.62427,0.7875 -1.80963,1.75 -0.23646,1.22785 0.30348,1.75 1.80963,1.75 1.50615,0 2.04609,-0.52215 1.80963,-1.75 z m 2.19037,-7.69098 c 0,-1.05548 -1.91911,-1.49891 -2.48992,-0.57533 -0.34546,0.55897 0.0734,1.01631 0.9309,1.01631 0.85746,0 1.55902,-0.19844 1.55902,-0.44098 z"
         id="path6869"
         inkscape:connector-curvature="0" />
      <path
         style="fill:#cbcbcb"
         d="m -688.92857,394.20025 c -47.5362,-1.67022 -64.72764,-4.87945 -70.91142,-13.23749 -1.88876,-2.55286 -2.10235,-4.30156 -2.23249,-18.2777 -0.0791,-8.50012 -0.44073,-17.03697 -0.80351,-18.97077 -0.81273,-4.33224 0.0757,-7.42858 2.13138,-7.42858 1.18626,0 1.39177,-0.64425 0.87724,-2.75 -0.36958,-1.5125 -1.30566,-5.675 -2.08019,-9.25 -0.77452,-3.575 -1.87633,-8.075 -2.44845,-10 -2.57622,-8.66813 -6.77242,-58.45644 -10.02941,-119 -0.57696,-10.725 -1.49,-26.475 -2.02898,-35 -1.34307,-21.2432 -1.29945,-23 0.57114,-23 2.05193,0 1.36439,-4.05281 -3.21789,-18.96838 -4.55143,-14.81512 -6.28852,-23.151349 -6.31006,-30.281619 -0.01,-3.1625 -0.46736,-5.75 -1.01736,-5.75 -0.55,0 -1,0.62686 -1,1.39301 0,0.76616 -0.7401,1.67702 -1.64468,2.02413 -1.49018,0.57184 -1.59376,-0.56882 -1.10272,-12.14301 0.29808,-7.025767 1.55308,-17.949127 2.7889,-24.274127 2.11692,-10.834527 2.17758,-12.310141 1.04824,-25.5 -2.04394,-23.87169 -2.54575,-42.245621 -1.1981,-43.869429 0.69546,-0.837982 0.91935,-2.535467 0.53591,-4.063199 -0.51736,-2.061326 -0.0818,-3.158502 2.03158,-5.11708 2.5776,-2.38883 3.24141,-2.495257 15.86551,-2.54364 7.24645,-0.02777 16.55036,-0.123813 20.67536,-0.213423 4.125,-0.08961 16.275,0.01356 27,0.229264 26.36261,0.530214 14.58991,1.77875 -18.5,1.961989 -24.16323,0.133806 -34.5,0.771932 -34.5,2.129809 0,0.40464 1.43437,1.022584 3.1875,1.373209 4.41056,0.882111 2.53623,2.378287 -4.21349,3.363396 -5.45058,0.795504 -5.47366,0.813796 -5.39245,4.274014 0.0449,1.911299 0.67265,16.07509 1.39508,31.47509 1.24069,26.4477 1.21192,28.332636 -0.51906,34 -1.00792,3.3 -2.154,9.15 -2.54685,13 -0.39285,3.85 -1.0382,9.72675 -1.43411,13.059427 -1.01343,8.53084 1.80276,24.10353 7.08253,39.164329 5.02545,14.33534 7.09078,23.49685 7.95253,35.27624 1.84918,25.27691 12.13755,103.45833 16.9101,128.5 1.88678,9.9 4.11953,22.05 4.96166,27 3.96914,23.33043 8.44799,43.11521 10.06395,44.45634 0.7366,0.61133 8.00335,1.57915 16.14832,2.1507 16.40878,1.15146 18.8425,1.86092 17.85137,5.20386 -0.97859,3.30067 -2.89908,4.36547 -10.24597,5.68084 -3.68561,0.65986 -8.48183,1.6491 -10.65826,2.19832 -5.44516,1.37409 -3.1891,2.4616 8.85846,4.27012 5.23852,0.78639 10.37728,1.88614 11.41947,2.44391 2.78832,1.49226 7.21559,1.43824 21.51518,-0.26253 8.54891,-1.0168 13.66396,-1.21189 15.3151,-0.58413 6.90737,2.62618 54.34894,-0.88957 54.34894,-4.02763 0,-0.45563 -1.9125,-1.04724 -4.25,-1.31469 -2.3375,-0.26746 -8.075,-1.25004 -12.75,-2.18353 -14.07402,-2.81023 -21.60147,-3.44169 -41.57569,-3.48767 -18.86442,-0.0434 -19.10088,-0.0707 -21.35108,-2.46596 l -2.27539,-2.42205 3.31816,-1.71589 c 2.99148,-1.54695 6.37348,-1.66653 34.35108,-1.21461 28.87863,0.46648 49.70424,-0.19284 54.53659,-1.72656 2.991,-0.94931 6.6061,-8.93288 7.92377,-17.49884 0.63454,-4.125 2.00711,-11.1 3.05018,-15.5 1.04306,-4.4 2.19661,-9.8 2.56344,-12 0.36684,-2.2 1.94316,-9.175 3.50296,-15.5 1.55979,-6.325 3.52144,-16.45 4.35923,-22.5 1.70566,-12.31728 6.34897,-48.57405 7.10773,-55.5 1.31822,-12.03262 7.655,-60.56275 8.94663,-68.51764 0.8053,-4.95969 2.79775,-12.25157 4.42767,-16.20417 3.7803,-9.16732 10.0115,-31.915329 10.73478,-39.189049 0.3623,-3.64351 -0.18288,-9.59239 -1.56611,-17.089137 -1.16703,-6.325 -2.57212,-14.122926 -3.12242,-17.328725 -0.66459,-3.871503 -0.67259,-16.799373 -0.0239,-38.5 0.5372,-17.969201 0.66523,-32.981791 0.28452,-33.361311 -0.38071,-0.379521 -2.90616,-1.058906 -5.61212,-1.509747 -5.67726,-0.945899 -6.91908,-2.686121 -2.88003,-4.035989 2.60403,-0.870278 2.41506,-0.988426 -2.7,-1.688078 -3.025,-0.413769 -19.76778,-1.067947 -37.20617,-1.453731 -17.43839,-0.385783 -32.05844,-1.0537 -32.489,-1.484259 -0.43056,-0.43056 17.88721,-0.629021 40.70617,-0.441025 34.3261,0.282799 42.00694,0.600076 44.489,1.837737 l 3,1.495927 -0.054,12.9846 c -0.0297,7.141531 -0.63628,23.334601 -1.34796,35.984601 -1.25185,22.25149 -1.22569,23.300686 0.804,32.239413 1.62335,7.149243 2.09796,12.610167 2.09796,24.139534 0,17.37684 -1.38461,25.898729 -7.04685,43.371379 -4.09182,12.62662 -4.52848,15.60486 -6.9276,47.24967 -0.58377,7.7 -1.52184,19.625 -2.0846,26.5 -0.56276,6.875 -1.935,24.2 -3.04942,38.5 -1.11442,14.3 -2.18942,27.35 -2.38888,29 -0.19947,1.65 -0.8435,9.975 -1.43118,18.5 -3.40889,49.45045 -4.41274,56.96358 -7.08142,53 -0.55547,-0.825 -0.77389,-2.50458 -0.48537,-3.73239 0.48291,-2.05503 -0.41716,-10.69857 -1.04664,-10.05111 -0.33101,0.34047 -4.45804,23.24032 -4.45804,24.73656 0,1.43963 1.25651,1.31108 3.5456,-0.36274 1.86689,-1.36511 1.87027,-1.47331 0.10693,-3.42178 -1.77331,-1.95948 -1.75254,-2.05691 0.79448,-3.72578 1.43847,-0.94252 2.87965,-1.44944 3.20261,-1.12648 0.32296,0.32296 0.0361,5.22142 -0.63736,10.88546 -1.00199,8.42652 -1.61421,10.61499 -3.36841,12.0409 -1.75659,1.42785 -1.89016,1.90735 -0.73944,2.65445 1.92367,1.24893 3.24805,11.72234 2.05134,16.22236 -2.08062,7.82383 -6.36405,10.54054 -21.06113,13.35774 -7.14696,1.36996 -59.39361,4.76705 -66.89462,4.3495 -1.375,-0.0765 -12.4,-0.487 -24.5,-0.91215 z m 57.07632,-3.99828 c 21.1332,-2.09663 17.57566,-2.54773 -19.57632,-2.4823 -20.625,0.0363 -46.275,-0.31518 -57,-0.78112 -10.725,-0.46594 -19.25016,-0.59109 -18.94479,-0.27813 0.70199,0.71947 25.1475,3.50061 34.44479,3.91875 17.93442,0.80658 51.21605,0.60104 61.07632,-0.3772 z m -29.07632,-10.80819 c 29.48966,-0.79446 45.87839,-2.29327 47.12462,-4.3097 0.34351,-0.55581 -13.57537,-0.63927 -35.27863,-0.21153 -32.52316,0.64098 -36.40218,0.54385 -41.84599,-1.04778 -4.56247,-1.33395 -7.31773,-1.56111 -11.5,-0.94814 -3.025,0.44336 -9.775,0.85293 -15,0.91016 -5.225,0.0572 -9.95,0.22143 -10.5,0.36488 -2.06553,0.53872 4.10135,2.22223 13.08255,3.57143 5.11444,0.76831 10.11314,1.8908 11.10822,2.49442 1.03952,0.63057 3.9364,0.86645 6.80923,0.55445 2.75,-0.29867 18.95,-0.91885 36,-1.37819 z m -65.75,-24.7974 c -0.9625,-0.25152 -2.5375,-0.25152 -3.5,0 -0.9625,0.25153 -0.175,0.45733 1.75,0.45733 1.925,0 2.7125,-0.2058 1.75,-0.45733 z m -59.0202,-283.038369 c -0.21648,-2.074757 -0.39722,-0.622297 -0.40166,3.2277 -0.004,3.85 0.17268,5.54754 0.39359,3.7723 0.22091,-1.77523 0.22454,-4.92523 0.008,-7 z m 236.25489,-91.522297 c 0.008,-0.4125 -0.43469,-0.75 -0.98469,-0.75 -0.55,0 -0.99311,1.0125 -0.98469,2.25 0.0124,1.819438 0.20082,1.962959 0.98469,0.75 0.53316,-0.825 0.97627,-1.8375 0.98469,-2.25 z M -688.42857,366.22669 c 0,-0.58246 0.45,-0.7809 1,-0.44098 0.55,0.33992 1,0.81648 1,1.05902 0,0.24254 -0.45,0.44098 -1,0.44098 -0.55,0 -1,-0.47656 -1,-1.05902 z m 36.75,0.39674 c 0.6875,-0.27741 1.8125,-0.27741 2.5,0 0.6875,0.27741 0.125,0.50439 -1.25,0.50439 -1.375,0 -1.9375,-0.22698 -1.25,-0.50439 z m 12.19662,-1.70342 c -4.62795,-2.36227 -0.81036,-4.67359 4.4291,-2.68155 1.50955,0.57393 2.49956,1.44003 2.20004,1.92467 -0.95396,1.54353 -4.33233,1.92926 -6.62914,0.75688 z m -47.44662,-395.634296 c -5.24983,-0.415551 0.2505,-0.691017 16,-0.801308 15.79947,-0.11064 23.48747,0.163158 22.5,0.801308 -1.60996,1.040434 -25.35575,1.040434 -38.5,0 z"
         id="path6867"
         inkscape:connector-curvature="0" />
      <path
         style="fill:#c3c3c3"
         d="m -705.42857,393.2369 c -26.3411,-1.25739 -42.68455,-3.83076 -49.45983,-7.78774 -5.81078,-3.39367 -7.03287,-7.15603 -7.03672,-21.66345 -0.003,-12.57069 0.0681,-13.01019 2.162,-13.30847 3.45147,-0.49167 3.58887,-2.94363 0.30115,-5.37434 -3.52611,-2.60697 -4.12308,-6.81719 -0.9666,-6.81719 2.30847,0 2.36519,-0.29915 0.94918,-5.0066 -0.57795,-1.92137 -1.68114,-6.4184 -2.45154,-9.9934 -0.77039,-3.575 -1.84038,-8.525 -2.37775,-11 -2.26945,-10.45263 -5.28126,-40.68722 -7.12245,-71.5 -0.52584,-8.8 -1.63888,-26.125 -2.47341,-38.5 -1.85727,-27.54058 -1.99116,-41.40674 -0.39028,-40.41734 0.83505,0.51609 1.00037,-3.61774 0.62748,-15.69098 -0.48841,-15.81377 -0.65178,-16.8429 -4.63375,-29.19008 -4.33807,-13.4514 -4.72553,-15.18925 -3.17251,-14.22943 0.52524,0.32461 3.02342,6.91915 5.55152,14.65453 4.63576,14.18428 5.17306,17.14111 8.0633,44.3733 3.26622,30.77477 10.47299,87.31181 12.93818,101.5 0.81228,4.675 2.62009,15.475 4.01734,24 9.60324,58.59158 9.88623,59.74829 14.97979,61.23011 1.64719,0.47921 8.6199,1.13614 15.4949,1.45984 15.16896,0.71423 16.92933,1.2289 16.25573,4.7526 -0.64381,3.36791 -0.89153,3.48679 -10.54262,5.05929 -9.82978,1.60162 -14.42326,3.18801 -13.09041,4.52086 0.5216,0.5216 5.77237,1.69459 11.66837,2.60664 10.44714,1.61605 15.05843,3.35329 13.37519,5.0389 -0.45682,0.45747 -8.21824,0.83176 -17.24759,0.83176 -9.02935,0 -16.41737,0.3375 -16.41783,0.75 -4.6e-4,0.4125 0.78666,0.75655 1.74916,0.76455 0.9625,0.008 3.55,0.63892 5.75,1.40203 2.2,0.76311 8.21497,1.89714 13.36661,2.52007 5.15163,0.62292 10.65648,1.79961 12.23299,2.61486 2.53665,1.31175 3.70236,1.30786 10.13339,-0.0338 5.41807,-1.13033 14.00938,-1.52079 33.76701,-1.53465 27.28053,-0.0191 41.40258,-0.94251 47.82069,-3.12679 l 3.67931,-1.25219 -3.5,-0.56605 c -1.925,-0.31133 -14.3,-0.19677 -27.5,0.25459 -27.93905,0.95533 -49.31476,0.41207 -52.58175,-1.33637 -2.19567,-1.17509 -2.21051,-1.26937 -0.40734,-2.58789 1.4607,-1.06808 7.26059,-1.37402 26.43022,-1.39416 30.27281,-0.0318 55.05887,-2.24222 55.05887,-4.91014 0,-1.31583 -12.34889,-5.06406 -16.68401,-5.06406 -2.22365,0 -6.46693,-0.4774 -9.4295,-1.06088 -2.96257,-0.58349 -15.84264,-1.25071 -28.62239,-1.48272 -23.09005,-0.41919 -27.2641,-1.04675 -27.2641,-4.09912 0,-2.57314 6.65101,-3.35609 27.89922,-3.28428 11.88043,0.0402 24.07578,0.45176 27.10078,0.91468 5.88215,0.90016 28.0842,-0.40426 34.0557,-2.00085 5.01857,-1.34181 7.61911,-6.49748 9.94548,-19.71728 1.81411,-10.30885 5.93113,-29.06753 9.92079,-45.20276 1.02904,-4.16174 2.37304,-11.84179 2.98667,-17.06679 5.81477,-49.51252 10.00717,-81.8285 12.58395,-97 0.79402,-4.675 1.92176,-12.775 2.50608,-18 1.32119,-11.814 3.65742,-21.96412 6.57519,-28.56701 3.0372,-6.87319 8.41364,-27.356779 9.41939,-35.886759 0.82266,-6.97723 0.54995,-9.3305 -3.65572,-31.546227 -1.31107,-6.925519 -1.46112,-11.463729 -0.81005,-24.5 0.4395,-8.8 0.90295,-18.7 1.02988,-22 0.30599,-7.955388 3.29851,-24.739881 4.63555,-26 0.7476,-0.704594 0.81635,5.055823 0.23272,19.5 -1.33466,33.031622 -1.1445,45.535985 0.82437,54.207842 2.21018,9.734688 2.33009,30.203715 0.24692,42.149505 -0.8267,4.740629 -3.48202,14.812069 -5.9007,22.380989 -3.20604,10.03282 -4.5729,16.20029 -5.0445,22.76166 -0.84407,11.74333 -4.02999,53.23161 -6.60401,86 -1.1233,14.3 -2.32377,26.675 -2.66771,27.5 -0.34395,0.825 -0.71943,3.525 -0.83441,6 -1.9345,41.64159 -4.72074,70.56601 -6.68082,69.35462 -0.69937,-0.43223 -0.85994,-5.00482 -0.47762,-13.60109 0.31676,-7.12247 0.4281,-12.79326 0.24741,-12.60174 -0.18069,0.19152 -1.30182,5.74821 -2.49141,12.34821 -1.18958,6.6 -2.72864,15.03161 -3.42012,18.73692 -1.44471,7.74148 -0.93005,9.53294 2.2498,7.83114 2.2327,-1.19491 2.868,-4.49217 1.07861,-5.59807 -0.7168,-0.44301 -0.67806,-1.09446 0.12245,-2.05902 2.66419,-3.21015 3.21984,-1.39006 2.5378,8.31281 -0.55225,7.85636 -1.08125,10.14714 -2.75454,11.92828 -1.93521,2.05993 -1.96564,2.35496 -0.46409,4.49873 2.06325,2.9457 2.14526,13.62507 0.14145,18.42085 -1.90389,4.55666 -9.28856,8.03875 -21.29309,10.04034 -17.69919,2.95109 -69.52042,4.09208 -106.24142,2.33921 z m 86.43336,-3.83043 c 8.73999,-1.37085 11.64693,-3.62323 3.56664,-2.76354 -12.49418,1.3293 -57.13887,1.83544 -71,0.80493 -23.19422,-1.72439 -45.73829,-2.34548 -43.8899,-1.20917 1.46101,0.89816 18.6748,3.42053 29.8899,4.37982 9.37308,0.80173 74.80324,-0.17212 81.43336,-1.21204 z m 17.53484,-35.37076 c 0.0467,-1.10208 -11.21185,-0.88504 -12.9682,0.25 -1.15638,0.74731 -0.81277,0.98321 1.5,1.02979 1.65,0.0332 4.35,0.6392 6,1.3466 2.56963,1.10168 3.17476,1.05934 4.2182,-0.2951 0.67,-0.86971 1.2325,-1.91879 1.25,-2.33129 z m -122.2182,1.56214 c 3.4375,-0.33074 6.25,-0.98628 6.25,-1.45674 0,-0.99258 -19.34163,-1.18044 -20.32466,-0.19741 -1.51739,1.51739 1.76555,3.50352 4.76865,2.88495 1.6808,-0.3462 5.86851,-0.90007 9.30601,-1.2308 z m 84.5,9.02119 c -0.6875,-0.275 -1.25,-0.94379 -1.25,-1.48621 0,-1.27842 4.06795,-0.65766 4.11461,0.62788 0.0427,1.17661 -1.16457,1.53835 -2.86461,0.85833 z m -136.5,-211.90406 c -0.4125,-0.41943 -0.70941,-3.0501 -0.65981,-5.84594 0.0881,-4.96853 0.112,-5.00753 1.05616,-1.72695 1.06095,3.68643 0.79419,8.78344 -0.39635,7.57289 z m -14.29734,-79.429269 c 0.27636,-6.324997 1.41257,-16.128453 2.52491,-21.785455 2.4319,-12.367901 2.48715,-17.218859 0.4631,-40.657461 -0.85763,-9.931395 -1.42013,-20.757081 -1.25,-24.057081 0.29133,-5.650845 0.45481,-6 2.80933,-6 2.19838,0 2.57974,0.542913 3.16092,4.5 0.36351,2.475 0.66338,13.508749 0.66639,24.519443 0.004,14.099044 0.38305,20.848136 1.28222,22.821614 1.03314,2.267477 1.03395,2.952233 0.004,3.588609 -0.69986,0.432541 -1.68216,3.662815 -2.18288,7.178386 -0.50076,3.515572 -1.60751,9.541948 -2.45948,13.391948 -0.85197,3.85 -1.96734,10.63479 -2.4786,15.077307 -1.58522,13.7746 -3.11741,14.63273 -2.54021,1.42269 z m 235.54734,-94.999997 c -0.825,-0.533156 -2.85,-0.983156 -4.5,-1 -1.65,-0.01684 -3.66617,-0.451866 -4.48039,-0.966716 -1.17768,-0.744686 -0.79833,-1.222873 1.85528,-2.338632 l 3.33566,-1.402541 -3.23027,-0.646056 c -1.77666,-0.35533 -4.63653,-0.677683 -6.35528,-0.71634 -1.71875,-0.03866 -4.025,-0.457029 -5.125,-0.929715 -1.28402,-0.551762 2.00182,-0.884591 9.17857,-0.929715 8.61859,-0.05419 11.48119,0.26528 12.5,1.395011 4.5395,5.033731 4.77155,5.95585 1.88717,7.49952 -2.37211,1.269517 -3.14741,1.274902 -5.06574,0.03518 z m -231.34415,-1.827784 c -1.69702,-1.875195 -1.66734,-2.056772 0.76533,-4.68167 2.91138,-3.14143 8.97535,-4.270255 14.57882,-2.713888 l 3.5,0.972127 -5.23096,0.751912 c -5.6612,0.813757 -6.11746,1.879619 -1.22357,2.858396 4.10909,0.82182 3.01403,2.240689 -2.27251,2.944482 -2.35013,0.312871 -5.19065,0.850251 -6.31228,1.194178 -1.34673,0.412951 -2.63892,-0.03723 -3.80483,-1.325537 z m 27.84415,-7.172216 c -0.40359,-0.653027 4.86728,-0.945029 15.19098,-0.84157 14.86054,0.148925 15.26906,0.202568 6.80902,0.894113 -13.35382,1.091574 -21.30463,1.072585 -22,-0.05254 z m 174.26166,0.292739 c 1.24391,-0.239193 3.04391,-0.230112 4,0.02018 0.95609,0.250292 -0.0617,0.445996 -2.26166,0.434897 -2.2,-0.0111 -2.98225,-0.215885 -1.73834,-0.455078 z"
         id="path6865"
         inkscape:connector-curvature="0" />
      <path
         style="fill:#bbbbbb"
         d="m -703.42857,393.16753 c -20.00258,-0.93713 -39.01745,-3.23246 -45.76999,-5.52501 -10.67769,-3.62517 -12.26335,-6.6114 -12.53485,-23.60669 -0.18378,-11.50438 -0.0786,-12.23831 1.80484,-12.59091 1.1,-0.20594 2.5625,-0.8311 3.25,-1.38926 1.79777,-1.45956 1.64506,-12.19719 -0.1952,-13.72447 -2.49103,-2.06737 -6.75202,-18.18986 -8.52363,-32.25124 -0.53397,-4.23817 -1.20802,-8.73817 -1.49788,-10 -0.28986,-1.26183 -0.98813,-8.81924 -1.55171,-16.79424 -0.56357,-7.975 -1.91028,-26.87248 -2.99269,-41.9944 -2.04977,-28.63671 -3.43702,-64.41876 -2.41361,-62.2556 1.33494,2.82163 2.51956,1.03784 1.99233,-3 -0.30522,-2.3375 -0.7694,-11.9 -1.03151,-21.25 -0.56371,-20.1086 0.84743,-20.4471 2.97451,-0.71351 4.37939,40.62896 13.28024,108.90672 16.90977,129.71351 1.34318,7.7 4.08512,24.54461 6.09319,37.43247 2.00808,12.88787 4.52701,25.77372 5.59764,28.63523 l 1.9466,5.20274 7.7211,0.83839 c 4.2466,0.46111 9.97109,0.86314 12.72109,0.8934 13.24942,0.14578 13.44024,0.19691 13.20974,3.53907 -0.16299,2.36348 -0.76692,3.15366 -2.70974,3.54547 -1.375,0.27729 -4.12721,0.9337 -6.11602,1.4587 -1.98881,0.52499 -4.59076,0.95453 -5.78212,0.95453 -3.43161,0 -9.5992,2.90266 -8.50102,4.00084 0.52522,0.52522 6.03475,1.80475 12.2434,2.8434 10.77781,1.80303 14.44935,3.2118 12.74204,4.88909 -0.42921,0.42167 -8.19909,0.65453 -17.2664,0.51747 -12.29861,-0.18591 -16.38628,0.05 -16.09337,0.92872 0.51628,1.54886 12.89643,4.48205 22.58217,5.35033 4.23022,0.37921 9.14679,1.36307 10.92569,2.18634 2.1931,1.01496 4.60765,1.28725 7.5,0.84578 2.3461,-0.3581 18.26367,-1.02937 35.37238,-1.49172 32.12304,-0.86809 39.31025,-1.33622 50.39325,-3.28233 6.14341,-1.07874 8.99938,-2.24022 9.00049,-3.66036 2.7e-4,-0.34516 -7.08723,-0.32154 -15.75,0.0525 -39.88963,1.72225 -72.92967,1.47412 -74.96679,-0.563 -0.42931,-0.4293 0.0922,-1.41876 1.159,-2.19879 1.5562,-1.13792 7.09014,-1.41974 27.99843,-1.42583 25.21882,-0.007 37.33066,-0.77108 48.30887,-3.0462 2.8875,-0.5984 5.25,-1.45069 5.25,-1.89396 0,-0.44328 -2.30015,-1.79546 -5.11145,-3.00485 -6.71835,-2.89015 -29.04259,-5.09658 -54.64389,-5.40074 -16.7918,-0.19951 -19.47856,-0.45205 -21,-1.97388 -1.40183,-1.40218 -1.48351,-1.90657 -0.41571,-2.56676 2.3557,-1.45645 39.96307,-2.3154 49.48745,-1.13029 11.18094,1.39124 36.93321,-0.2707 40.52714,-2.61545 3.30849,-2.15852 5.7376,-8.34554 7.60112,-19.36028 1.60043,-9.45965 4.38759,-21.98356 7.01024,-31.5 2.96589,-10.76189 4.52891,-19.72525 6.5392,-37.5 4.87701,-43.12195 9.66525,-77.39193 12.48685,-89.36979 0.89006,-3.77838 2.0433,-11.87838 2.56276,-18 1.15917,-13.66058 2.27931,-18.9841 6.02415,-28.63021 3.9329,-10.13054 8.80283,-29.039719 9.52909,-36.999999 0.42222,-4.62784 -0.13809,-10.96437 -1.94536,-21.999997 -3.12612,-19.088844 -3.32206,-22.322633 -2.30257,-38 0.44707,-6.875 0.94273,-14.75 1.10146,-17.5 0.55424,-9.60245 2.7968,-22.063842 3.58646,-19.929187 0.76359,2.064185 0.74259,3.550483 -0.54292,38.429187 -0.66598,18.069506 -0.54936,21.152084 0.98359,26 1.12809,3.56754 1.91955,10.260994 2.25258,19.050317 0.64607,17.0507 -1.04032,28.350929 -7.18389,48.138229 -3.98751,12.84302 -4.64779,16.31025 -5.5132,28.95092 -1.26568,18.4873 -2.8638,37.24519 -4.03498,47.36053 -0.50944,4.4 -1.18178,12.95 -1.49409,19 -1.10364,21.37989 -2.79887,38.03262 -4.14323,40.70034 -1.61173,3.19827 -1.78419,6.79966 -0.32562,6.79966 0.66067,0 0.59606,0.81402 -0.17857,2.25 -1.11697,2.07057 -3.7796,18.60176 -3.74481,23.25 0.013,1.73209 0.14331,1.67916 0.97307,-0.39518 0.52695,-1.31735 1.15903,-2.19426 1.40461,-1.94867 0.66286,0.66285 -2.32702,37.8537 -3.32375,41.34385 -0.7363,2.57823 -0.9304,2.01588 -1.38066,-4 -0.28815,-3.85 -0.0579,-8.84311 0.51167,-11.0958 0.56957,-2.25269 0.68342,-4.95269 0.253,-6 -0.7166,-1.74363 -0.84932,-1.69339 -1.5739,0.5958 -0.43522,1.375 -1.5491,7 -2.47529,12.5 -0.92618,5.5 -2.31493,13.29725 -3.08611,17.32723 -1.02855,5.37496 -1.11431,7.86506 -0.32185,9.34578 1.07611,2.01072 1.0881,2.01016 3.0944,-0.14335 1.10776,-1.18904 2.22156,-1.95444 2.47511,-1.70089 1.03505,1.03505 -1.00173,12.86433 -2.30084,13.36284 -1.81231,0.69545 -1.71904,2.83272 0.2551,5.84564 2.26897,3.46288 1.53811,14.41156 -1.21504,18.20198 -5.01982,6.91109 -18.90793,9.90377 -52.40132,11.2917 -25.12591,1.04119 -47.58635,0.99467 -72,-0.14911 z m 79,-2.75553 c 3.025,-0.5338 9.2125,-1.53666 13.75,-2.22859 4.5375,-0.69193 8.25,-1.66273 8.25,-2.15733 0,-0.49461 -1.2375,-0.64604 -2.75,-0.33653 -6.99828,1.43211 -60.45657,2.53266 -75.25,1.54918 -8.525,-0.56675 -24.5,-1.21235 -35.5,-1.43465 -18.31716,-0.37019 -19.53722,-0.29111 -14.5,0.93974 7.44288,1.81869 21.36865,3.54004 36.74941,4.54254 15.73612,1.02567 61.77752,0.44435 69.25059,-0.87436 z m 23.9682,-36.39969 c 0.0288,-1.60856 -0.73505,-1.71301 -8.2182,-1.12376 -8.08041,0.63629 -13.14345,2.35274 -7.2,2.44093 1.6225,0.0241 5.2,0.81376 7.95,1.75486 4.438,1.51877 5.13693,1.54195 6.2182,0.20623 0.67,-0.82767 1.2325,-2.30289 1.25,-3.27826 z m -124.9682,2.21991 c 3.025,-0.51421 7.1875,-0.93753 9.25,-0.94072 6.58069,-0.0102 4.02164,-1.7481 -3.5,-2.37697 -15.28065,-1.27757 -19.21906,-1.14725 -19.56467,0.64738 -0.54435,2.82653 1.98037,4.81031 5.31467,4.17598 1.65,-0.31391 5.475,-0.99146 8.5,-1.50567 z m 149.09238,-15.32388 c -1.05434,-1.27888 -1.12127,-1.99374 -0.26667,-2.84834 1.51375,-1.51375 2.41418,-0.4787 2.00509,2.30486 -0.30627,2.08394 -0.4352,2.12425 -1.73842,0.54348 z M -790.10043,74.785711 c 0.004,-3.849997 0.18518,-5.302457 0.40166,-3.2277 0.21647,2.07477 0.21284,5.22477 -0.008,7 -0.22091,1.77524 -0.39803,0.0777 -0.39359,-3.7723 z m 1.70785,-13.499997 c -0.0137,-2.475 0.40337,-6.075 0.92673,-8 2.20045,-8.093581 3.04533,-20.56779 2.06579,-30.5 -2.34664,-23.793906 -2.82702,-31.310934 -2.3166,-36.25 0.2984,-2.8875 0.84247,-5.25 1.20904,-5.25 2.56196,0 5.00167,48.016998 3.15018,62 -2.30004,17.370502 -4.98564,26.97119 -5.03514,18 z m 230.07591,-84.080995 c -5.72888,-1.125206 -6.11963,-1.671748 -2.17768,-3.045917 3.92577,-1.368531 2.4372,-2.826087 -2.93422,-2.873088 -1.925,-0.01684 -4.175,-0.466844 -5,-1 -1.03683,-0.670051 0.97024,-0.969375 6.5,-0.969375 8.87541,0 9.97805,0.409428 12.09577,4.491331 2.26686,4.369381 0.35806,5.133688 -8.48387,3.397049 z m -227.10456,-1.410158 c -1.09431,-1.318568 -0.93231,-1.959813 1.0202,-4.038162 1.96128,-2.087692 3.1854,-2.454817 7.89677,-2.368324 4.93398,0.09058 5.19581,0.19233 2.27494,0.88408 -4.70003,1.113112 -4.98682,1.84305 -1.23762,3.150026 3.90584,1.361586 2.74895,2.296023 -4.05751,3.277285 -3.54415,0.510946 -4.89359,0.303864 -5.89678,-0.904905 z"
         id="path6863"
         inkscape:connector-curvature="0" />
      <path
         style="fill:#b3b3b3"
         d="m -667.5119,393.90813 c -0.22917,-0.20767 -12.29877,-0.66981 -26.82134,-1.02699 -36.61367,-0.90049 -54.89172,-3.50103 -61.57898,-8.76123 -4.41326,-3.47147 -5.51635,-7.50984 -5.51635,-20.19509 0,-9.49574 0.26712,-11.52764 1.58179,-12.03212 2.88272,-1.10621 4.27538,-0.63236 4.59866,1.56468 0.17575,1.19442 0.95376,2.38082 1.7289,2.63645 1.02688,0.33865 1.21257,-0.0472 0.68424,-1.42167 -0.39882,-1.03755 -1.18905,-5.71145 -1.75609,-10.38645 -0.56704,-4.675 -1.44691,-8.65316 -1.95528,-8.84035 -1.89669,-0.6984 -3.70033,-6.01121 -6.16499,-18.15965 -3.96933,-19.56502 -5.48352,-34.64239 -8.68704,-86.5 -0.57759,-9.35 -1.49568,-24.15734 -2.04018,-32.90521 -0.54451,-8.74787 -0.99001,-16.96037 -0.99001,-18.25 0,-2.73695 1.61736,-3.14269 2.37094,-0.59479 0.28468,0.9625 0.2658,-7.25 -0.042,-18.25 -0.86251,-30.82882 -0.14781,-27.82826 6.66933,28 5.52913,45.28029 8.97147,70.80319 11.46416,85 1.35198,7.7 3.83807,23.45 5.52464,35 1.68657,11.55 4.01974,24.825 5.18481,29.5 1.16506,4.675 2.3905,10.3 2.72319,12.5 0.33269,2.2 1.33084,5.02476 2.21812,6.27725 1.37544,1.94156 2.00479,2.12838 4.26951,1.26733 3.29095,-1.25121 25.50583,-3.48934 26.34131,-2.65386 1.13543,1.13543 -0.49798,1.73193 -8.63012,3.15161 -8.74638,1.52692 -14.89505,4.05655 -13.4274,5.5242 0.49298,0.49299 5.60719,1.63511 11.3649,2.53805 5.75771,0.90294 11.58907,2.07586 12.95858,2.60649 2.44816,0.94855 2.45656,0.98969 0.5,2.44772 -1.63679,1.21973 -4.38623,1.36817 -15.49001,0.83626 -7.425,-0.35568 -14.32887,-0.88102 -15.34192,-1.16743 -1.38216,-0.39076 -1.75317,-0.0598 -1.48634,1.32582 0.49165,2.55322 6.34888,4.32257 18.32826,5.53661 11.48484,1.16391 16.85684,2.70883 17.29292,4.97322 0.44215,2.29587 -3.26803,2.71467 -15.6131,1.76239 -14.24892,-1.09915 -19.17982,-1.10675 -19.17982,-0.0296 0,0.49286 3.9375,1.60354 8.75,2.46817 17.15886,3.08284 37.23801,4.63619 61.95681,4.79306 16.74292,0.10626 22.52031,0.39062 17.79319,0.87579 -7.98847,0.8199 -18.96438,1.15018 -19.58333,0.58929 z m -92.25439,-99.87242 c -0.27741,-0.6875 -0.50439,-0.125 -0.50439,1.25 0,1.375 0.22698,1.9375 0.50439,1.25 0.27741,-0.6875 0.27741,-1.8125 0,-2.5 z m -0.97295,-7.5 c -0.25153,-0.9625 -0.45733,-0.175 -0.45733,1.75 0,1.925 0.2058,2.7125 0.45733,1.75 0.25152,-0.9625 0.25152,-2.5375 0,-3.5 z m -10,-98 c -0.25153,-0.9625 -0.45733,-0.175 -0.45733,1.75 0,1.925 0.2058,2.7125 0.45733,1.75 0.25152,-0.9625 0.25152,-2.5375 0,-3.5 z m 144.81067,203.77649 -3,-0.69373 3.5,-0.66133 c 1.925,-0.36374 7.76999,-1.3711 12.98888,-2.23859 5.21888,-0.86749 9.68138,-1.76976 9.91666,-2.00505 1.36215,-1.36215 -2.53426,-1.44949 -18.5585,-0.41602 -23.54214,1.51833 -70.72511,0.95567 -74.84704,-0.89256 l -3,-1.34516 5.02655,-1.75018 c 4.26062,-1.48349 10.27944,-1.83865 39.5,-2.33086 33.69866,-0.56764 49.09678,-1.72055 51.68664,-3.86994 2.20774,-1.83226 1.57247,-4.11158 -0.96822,-3.47391 -1.24027,0.31129 -20.71409,0.88005 -43.27517,1.26392 -31.96669,0.5439 -41.53486,0.42247 -43.35233,-0.55021 -5.02783,-2.69082 -0.6313,-3.40814 19.60281,-3.19833 27.20276,0.28207 56.75572,-2.29846 60.88273,-5.31621 1.37236,-1.00349 0.74123,-1.5673 -4.24551,-3.79268 -7.77227,-3.46844 -19.00249,-4.70217 -49.60915,-5.44996 -19.66322,-0.48041 -24.99506,-0.89803 -25.9357,-2.03143 -2.47924,-2.9873 1.39204,-3.35456 29.68735,-2.81632 15.4,0.29295 29.125,0.58985 30.5,0.6598 4.74079,0.24116 27.27322,-2.1936 29.03717,-3.13763 3.03145,-1.62238 5.70882,-8.96687 8.37721,-22.98011 1.41386,-7.425 4.15622,-19.575 6.09412,-27 1.98428,-7.60271 4.40892,-20.7078 5.55044,-30 7.55365,-61.48809 9.48302,-75.29866 12.57322,-90 1.90754,-9.075 3.47663,-18.3 3.48686,-20.5 0.036,-7.75545 3.96927,-28.09198 6.90868,-35.72105 4.27859,-11.10483 8.9723,-31.419869 8.9723,-38.833399 0,-3.46885 -1.17091,-13.763167 -2.60201,-22.876272 -2.05804,-13.105319 -2.47843,-18.555336 -2.01087,-26.069275 1.85269,-29.773807 2.47434,-36.25905 3.57872,-37.334617 0.92849,-0.90426 1.01036,3.427983 0.36539,19.334617 -1.04,25.648814 -0.83129,32.34256 1.18488,38.001735 0.94475,2.651795 1.83145,9.424085 2.16012,16.498265 0.73701,15.862917 -1.30864,30.016116 -7.01521,48.535966 -5.62891,18.26783 -5.44831,17.25549 -6.68355,37.46403 -0.57152,9.35 -1.44983,21.275 -1.9518,26.5 -0.50197,5.225 -1.63715,19.4 -2.52262,31.5 -0.88546,12.1 -2.27236,26.275 -3.08198,31.5 -0.80963,5.225 -2.56847,18.05 -3.90855,28.5 -2.36058,18.40801 -2.91037,21.93145 -6.08542,39 -4.69722,25.2515 -5.52133,31.45542 -4.44548,33.46566 1.28891,2.40834 2.58242,2.61283 3.38001,0.53434 1.23322,-3.21373 2.36782,-1.26423 1.89147,3.25 -0.29665,2.81128 -1.33402,5.66407 -2.54163,6.98952 -1.86958,2.05202 -1.90814,2.38692 -0.46055,4 3.80084,4.23538 3.33343,16.22413 -0.82521,21.1664 -3.02299,3.59262 -8.99231,5.6957 -21.39537,7.5379 -12.77283,1.89712 -20.9023,2.42162 -24.53034,1.58267 z m 24.67126,-34.68148 c 1.00581,-0.91024 1.82874,-2.76032 1.82874,-4.11129 0,-2.21828 -0.31494,-2.40257 -3.25,-1.90186 -1.7875,0.30495 -7.19418,0.85881 -12.01485,1.23081 -4.82066,0.372 -8.97051,1.00913 -9.22188,1.41586 -0.25137,0.40672 2.69438,1.03239 6.54611,1.39037 3.85172,0.35798 8.45157,1.28472 10.22188,2.05941 4.16136,1.82104 3.77977,1.82643 5.89,-0.0833 z m -113.67126,-5.34501 -5,-0.68579 6.19098,-0.15711 c 3.40504,-0.0864 6.4691,0.2929 6.80902,0.8429 0.66091,1.06937 -0.2034,1.06937 -8,0 z m -19.23097,-1.69299 c 0.97297,-0.25354 2.32297,-0.23687 3,0.0371 0.67703,0.27393 -0.11903,0.48137 -1.76903,0.46099 -1.65,-0.0204 -2.20394,-0.2445 -1.23097,-0.49804 z m 157.73097,-11.30701 c 0,-0.55 0.45,-1 1,-1 0.55,0 1,0.45 1,1 0,0.55 -0.45,1 -1,1 -0.55,0 -1,-0.45 -1,-1 z m 2.20835,-21.49884 c 0.42927,-5.1765 1.2142,-7.41194 2.24175,-6.38439 0.24755,0.24755 0.1846,3.02255 -0.1399,6.16666 -0.76423,7.4046 -2.7146,7.60663 -2.10185,0.21773 z m 1.31587,-16.75116 c 0.89249,-8.89797 2.3222,-13.21023 2.4037,-7.25 0.0876,6.40559 -1.12306,14.5 -2.1687,14.5 -0.59466,0 -0.68443,-2.76936 -0.235,-7.25 z M -790.27068,74.285711 c 0,-1.375 0.22698,-1.9375 0.50439,-1.25 0.27741,0.6875 0.27741,1.8125 0,2.5 -0.27741,0.6875 -0.50439,0.125 -0.50439,-1.25 z m 1.84211,-12.403734 c 0,-3.886388 3.37988,-18.596263 4.27285,-18.596263 0.53124,0 0.68329,1.228708 0.34032,2.75 -0.34099,1.5125 -1.24652,5.815569 -2.01228,9.562377 -1.37169,6.71151 -2.60089,9.681313 -2.60089,6.283886 z m 3.51035,-37.846263 c -0.79227,-3.377739 -2.49204,-24.439723 -2.5018,-31 -0.008,-5.686108 1.5004,-7.852087 2.43816,-3.5 0.66099,3.0676 1.62316,36.75 1.0498,36.75 -0.25212,0 -0.69589,-1.0125 -0.98616,-2.25 z m 235.5686,-30.333333 c 0.048,-1.164943 0.28494,-1.4019 0.60416,-0.604167 0.28887,0.721875 0.25335,1.584375 -0.0789,1.916667 -0.3323,0.332291 -0.56864,-0.258334 -0.52522,-1.3125 z m -5.57895,-16.071603 c -1.1,-0.232613 -3.0125,-0.638986 -4.25,-0.903051 -2.99969,-0.64009 -2.85404,-2.073594 0.2909,-2.862922 3.49085,-0.876149 2.10431,-2.579091 -2.09992,-2.579091 -1.89254,0 -3.44098,-0.45 -3.44098,-1 0,-1.09293 7.85279,-1.377456 10.4552,-0.378819 2.49202,0.956277 4.70637,5.817252 3.29356,7.230063 -0.63182,0.631816 -1.39626,1.096555 -1.69876,1.032755 -0.3025,-0.0638 -1.45,-0.306322 -2.55,-0.538935 z m -229.25,-1.017347 c -0.6875,-0.271911 -1.25,-1.053442 -1.25,-1.736736 0,-1.91076 4.39429,-5.600551 6.56445,-5.512034 1.06455,0.04342 1.37305,0.305921 0.68555,0.583334 -2.00376,0.808536 -1.4567,2.165161 1.5,3.719769 l 2.75,1.445924 -3,0.678958 c -1.65,0.373427 -3.675,0.822105 -4.5,0.997063 -0.825,0.174958 -2.0625,0.09563 -2.75,-0.176278 z"
         id="path6861"
         inkscape:connector-curvature="0" />
      <path
         style="fill:#ababab"
         d="m -732.42857,390.67566 c -19.14209,-2.56019 -26.22466,-6.06997 -28.02923,-13.88995 -0.50768,-2.2 -0.93379,-8.6125 -0.94691,-14.25 l -0.0239,-10.25 2.5,0 c 1.52887,0 2.5,0.56901 2.5,1.46482 0,1.45134 3.76264,4.10587 4.61363,3.25489 0.24328,-0.24328 -0.0198,-1.65781 -0.58461,-3.14338 -0.56482,-1.48558 -1.31879,-6.49799 -1.67551,-11.13869 -0.53159,-6.91585 -0.94644,-8.43764 -2.30015,-8.43764 -1.98627,0 -3.2895,-3.40068 -5.93999,-15.5 -3.34838,-15.28517 -5.31735,-33.74466 -8.10647,-76 -3.3002,-49.99806 -3.329,-54.23519 -0.31574,-46.44475 1.23842,3.20181 1.29543,2.88055 0.80834,-4.55525 -0.28823,-4.4 -0.73175,-15.425 -0.9856,-24.5 l -0.46154,-16.5 1.93328,11 c 1.0633,6.05 4.23767,29.675 7.05415,52.5 2.81648,22.825 5.76353,45.1 6.549,49.5 0.78547,4.4 3.69626,22.625 6.46842,40.5 5.60463,36.13888 8.74283,51.22862 11.15581,53.64159 1.31694,1.31694 2.18684,1.41467 4.72292,0.53059 1.70975,-0.59603 7.71111,-1.34676 13.33635,-1.66829 9.9514,-0.56882 10.11965,-0.54341 6.22771,0.94069 -2.2,0.83892 -4.9,1.52986 -6,1.53542 -2.6243,0.0133 -11.5,3.20851 -11.5,4.13999 0,1.19037 5.91988,2.78052 15.82833,4.25166 10.26722,1.52441 12.68761,2.74668 9.16856,4.63001 -1.4937,0.79941 -4.71213,0.97546 -9.85735,0.53922 -15.8844,-1.34679 -21.13954,-1.35712 -21.13954,-0.0416 0,3.13102 5.55702,4.86013 20.9508,6.51904 11.22761,1.20994 14.0492,2.14275 14.0492,4.64464 0,1.42285 -1.81203,1.51516 -17,0.86599 -11.44588,-0.48923 -17,-0.39079 -17,0.3013 0,1.23656 6.15636,2.56877 23.5,5.08531 l 13,1.88629 -11,-0.004 c -6.05,-0.002 -15.725,-0.63553 -21.5,-1.40792 z m -26.48508,-91.5529 c -1.62891,-15.00488 -2.51492,-19.51641 -2.51492,-12.8059 0,4.50075 3.23996,29.06222 3.76447,28.53771 0.22737,-0.22736 -0.33493,-7.30668 -1.24955,-15.73181 z m -2.98159,-27.37038 c -0.39015,-3.64319 -0.91309,-6.42024 -1.1621,-6.17124 -0.249,0.24901 -0.14606,3.44606 0.22877,7.10457 0.37483,3.65851 0.89777,6.43556 1.1621,6.17123 0.26433,-0.26433 0.16138,-3.46138 -0.22877,-7.10456 z m -7.45515,-69.78849 c -1.29125,-1.29125 -1.42689,0.53332 -0.3213,4.32182 l 0.72957,2.5 0.33495,-2.87182 c 0.18423,-1.5795 -0.15022,-3.357 -0.74322,-3.95 z m 144.92182,189.42128 c 0.825,-0.46185 6,-1.41906 11.5,-2.12713 5.5,-0.70808 10.44624,-1.68526 10.99164,-2.17151 2.05002,-1.8277 -1.6227,-2.36912 -10.21619,-1.50602 -11.07109,1.11193 -76.83525,1.46813 -80.52545,0.43615 -3.80408,-1.06383 -3.44271,-2.23663 1.27024,-4.12237 3.34901,-1.34001 8.55711,-1.60858 31.19343,-1.60858 32.37471,0 54.46439,-1.45141 57.03633,-3.7476 0.9625,-0.85931 1.75,-2.23505 1.75,-3.0572 0,-1.27654 -1.64278,-1.39948 -11.25,-0.84189 -6.1875,0.35912 -25.43743,0.94592 -42.77763,1.30401 -24.29956,0.5018 -32.06175,0.36521 -33.85736,-0.59577 -1.28135,-0.68576 -1.94392,-1.60622 -1.47237,-2.04548 0.47155,-0.43925 13.90736,-1.03547 29.85736,-1.32494 26.21778,-0.4758 43.33784,-1.92093 50.80505,-4.28853 4.50097,-1.4271 -2.37777,-5.78537 -12.70966,-8.05264 -7.78433,-1.70823 -35.17212,-3.67685 -52.51081,-3.77445 -9.78727,-0.0551 -13.52845,-0.41357 -13.83334,-1.32551 -0.22985,-0.6875 -0.0429,-1.25357 0.41543,-1.25793 0.45833,-0.004 10.95833,-0.23917 23.33333,-0.52182 22.93466,-0.52382 32.56065,0.29371 34.53128,2.93271 0.65999,0.88385 4.26026,1.64184 10,2.10539 8.0092,0.64684 11.99704,1.53898 17.71872,3.96394 1.24836,0.52908 1.75,0.28104 1.75,-0.8653 0,-0.88385 0.40122,-1.60699 0.89159,-1.60699 0.49038,0 1.19776,-1.21986 1.57196,-2.7108 0.48107,-1.91674 0.21666,-3.04987 -0.90268,-3.86835 -1.44398,-1.05587 -1.44388,-1.27305 10e-4,-2.4723 3.09729,-2.57053 5.54002,-9.16854 7.49047,-20.23238 1.08752,-6.16889 2.85883,-14.14117 3.93625,-17.71617 3.97329,-13.18386 6.99287,-28.97272 8.98864,-47 4.29323,-38.77974 7.16591,-59.27215 11.49497,-82 2.46188,-12.925 5.23198,-29.575 6.15579,-37 1.09831,-8.82753 2.66911,-16.21788 4.53847,-21.35267 5.05702,-13.89075 8.94496,-30.546169 9.13831,-39.147329 0.0989,-4.4 -0.80216,-14.074997 -2.00237,-21.499997 -1.20022,-7.425 -2.25655,-17.55 -2.34741,-22.5 -0.21219,-11.559406 2.03891,-38.696585 3.31811,-40 0.64234,-0.654503 0.74462,2.109476 0.29603,8 -0.37695,4.95 -0.92063,15.591629 -1.20817,23.648065 -0.47184,13.220205 -0.30029,15.413454 1.75985,22.5 1.92621,6.625858 2.26716,10.03803 2.18348,21.851932 -0.1218,17.19455 -1.91475,27.947359 -7.67738,46.043479 -3.71628,11.67006 -4.54574,15.75862 -5.06301,24.95652 -0.91793,16.32243 -2.54485,35.94452 -3.73106,45 -0.57637,4.4 -1.20484,12.275 -1.3966,17.5 -0.44336,12.08064 -1.95859,26.97625 -4.42496,43.5 -1.06722,7.15 -2.65544,19.075 -3.52938,26.5 -0.87394,7.425 -3.63261,25.11178 -6.13037,39.30395 -2.55513,14.51808 -4.26353,26.91105 -3.90608,28.33523 0.34942,1.3922 1.74211,3.55703 3.09486,4.81072 2.99267,2.77351 3.02589,3.31837 0.37436,6.1408 -1.97196,2.09904 -1.9958,2.35605 -0.43895,4.7321 2.16065,3.29757 2.44866,14.13526 0.48306,18.1772 -2.28941,4.70779 -10.43434,8.18519 -23.38298,9.98316 -11.87033,1.64823 -25.06259,2.00837 -22.57593,0.6163 z m 41.34934,-36.56743 c 0.30982,-0.80739 0.13297,-1.73395 -0.39301,-2.05902 -0.52598,-0.32508 -0.95633,-0.37629 -0.95633,-0.11381 0,0.26247 -0.27314,1.18903 -0.60699,2.05901 -0.33384,0.86999 -0.15699,1.58179 0.39301,1.58179 0.55,0 1.25349,-0.66059 1.56332,-1.46797 z m -42.84934,-2.33551 c 0.55,-0.51791 5.725,-1.2035 11.5,-1.52354 5.775,-0.32003 9.825,-0.20958 9,0.24546 -2.20154,1.21427 -21.72484,2.43146 -20.5,1.27808 z m 52.732,-35.19652 c 0,-1.925 0.2058,-2.7125 0.45733,-1.75 0.25152,0.9625 0.25152,2.5375 0,3.5 -0.25153,0.9625 -0.45733,0.175 -0.45733,-1.75 z m 0.52325,-14.5 c 0.26285,-1.375 0.65044,-2.5 0.86133,-2.5 0.21088,0 0.38342,1.125 0.38342,2.5 0,1.375 -0.3876,2.5 -0.86133,2.5 -0.47373,0 -0.64627,-1.125 -0.38342,-2.5 z m -201.26774,-116.8247 c -0.4351,-2.25455 -0.3282,-4.23461 0.2604,-4.82321 1.42723,-1.42723 2.4695,3.40122 1.36323,6.31533 -0.82062,2.16166 -0.93959,2.05233 -1.62363,-1.49212 z M -785.27068,15.285714 c 0,-1.375 0.22698,-1.9375 0.50439,-1.25 0.27741,0.6875 0.27741,1.8125 0,2.5 -0.27741,0.6875 -0.50439,0.125 -0.50439,-1.25 z m -1.53289,-14.125 c -0.92281,-4.614069 -0.75894,-11.875 0.26801,-11.875 1.45775,0 2.10699,2.798436 2.10699,9.081787 0,6.339794 -1.34849,7.925744 -2.375,2.793213 z m 228.125,-24.564326 c -2.56524,-0.670366 -2.13475,-1.997293 0.89464,-2.757622 2.79143,-0.700603 2.25914,-2.021268 -1.14464,-2.839986 -1.1,-0.264585 -0.0764,-0.533264 2.27475,-0.597065 3.71912,-0.100923 4.40152,0.217413 5.25,2.449099 0.53639,1.410804 0.97525,2.985804 0.97525,3.5 0,0.942836 -5.01106,1.091998 -8.25,0.245574 z m -225.75,-2.342059 c 0,-2.837316 2.35758,-3.435651 5.47888,-1.390496 3.0245,1.981729 1.90378,3.380772 -2.72888,3.406568 -2.10252,0.01171 -2.75,-0.46297 -2.75,-2.016072 z"
         id="path6859"
         inkscape:connector-curvature="0" />
      <path
         style="fill:#979797"
         d="m -620.42857,391.37394 c 0.825,-0.46802 5.45601,-1.42954 10.29114,-2.13672 7.07684,-1.03505 8.7301,-1.59444 8.47813,-2.86864 -0.36774,-1.85964 1.36189,-1.85475 -35.26927,-0.0998 -26.89128,1.28832 -52.74167,0.77864 -55.59315,-1.09612 -1.1798,-0.77568 -1.12893,-1.13812 0.31514,-2.24572 1.30416,-1.00028 10.0394,-1.4957 36,-2.04176 45.79583,-0.96327 51.41563,-1.43372 53.909,-4.51291 2.26037,-2.79144 1.9445,-4.66875 -0.73862,-4.38987 -10.42374,1.08343 -74.27341,2.45981 -79.89237,1.72221 -14.19248,-1.86306 -7.37138,-2.91128 23,-3.53448 34.32864,-0.70439 52.5,-2.86989 52.5,-6.25647 0,-0.71224 -2.3625,-2.47813 -5.25,-3.92421 l -5.25,-2.62925 4.03856,-0.0372 c 2.22121,-0.0205 5.79051,0.85595 7.93178,1.94763 2.14128,1.09168 3.96065,1.87918 4.04304,1.75 0.0824,-0.12918 0.90059,-1.34751 1.81821,-2.70739 0.91763,-1.35987 1.6779,-3.60987 1.6895,-5 0.0116,-1.39012 1.13906,-5.67749 2.50546,-9.52749 1.36641,-3.85 3.39797,-12.31908 4.51459,-18.82019 1.11661,-6.5011 2.91416,-13.46943 3.99453,-15.48519 1.08038,-2.01575 1.96433,-4.57674 1.96433,-5.69108 0,-1.11435 1.0911,-7.42101 2.42468,-14.01481 1.33357,-6.5938 2.94295,-16.93873 3.5764,-22.98873 3.2989,-31.50734 8.37941,-69.21382 9.47312,-70.30753 0.28919,-0.28919 0.53948,2.1367 0.55621,5.39086 0.0255,4.96781 0.21576,5.59691 1.18616,3.92281 0.66097,-1.14027 1.20446,-6.70564 1.26954,-13 0.0665,-6.43224 1.03599,-16.20085 2.33289,-23.50614 1.22051,-6.875 2.83832,-16.775 3.59514,-22 l 1.37605,-9.5 -0.3906,14 c -0.21482,7.7 -0.85678,18.275 -1.42656,23.5 -2.08441,19.11445 -2.88869,27.7116 -3.50817,37.5 -0.9894,15.63343 -7.78293,73.38094 -10.40302,88.42946 -1.01223,5.8138 -3.07221,17.6189 -4.57772,26.23356 -3.04272,17.41068 -2.88892,24.25634 0.5696,25.35403 2.29434,0.72819 2.60497,4.29296 0.44628,5.12132 -1.88969,0.72515 -1.87569,3.28083 0.0318,5.80276 1.67147,2.20987 1.99863,12.03353 0.52946,15.89774 -2.38997,6.2861 -8.79237,8.97769 -26.61346,11.18842 -13.69017,1.69828 -17.70993,1.84425 -15.4478,0.56094 z m 36.8,-35.28823 c 1.55573,-1.55573 1.55922,-5.08641 0.005,-4.56817 -1.30465,0.43488 -3.07808,5.76817 -1.91804,5.76817 0.39244,0 1.25352,-0.54 1.91352,-1.2 z m 6.89299,-76.53097 c -0.25354,-0.97297 -0.47766,-0.41903 -0.49804,1.23097 -0.0204,1.65 0.18706,2.44606 0.46099,1.76903 0.27392,-0.67703 0.29059,-2.02703 0.0371,-3 z m 2.2917,-11.07805 c 0.009,-1.28757 -0.42706,-2.03561 -0.98469,-1.69098 -0.55,0.33992 -0.99311,2.05398 -0.98469,3.80902 0.0117,2.42807 0.24708,2.83235 0.98469,1.69098 0.53316,-0.825 0.97627,-2.53906 0.98469,-3.80902 z m -163.33746,121.23842 c -4.86903,-0.75729 -11.29706,-2.49592 -14.28452,-3.86362 -7.18023,-3.28722 -8.53041,-6.41263 -9.14231,-21.16275 -0.39432,-9.50521 -0.23191,-11.18464 1.13226,-11.70812 0.94182,-0.36141 2.11457,0.12415 2.86997,1.18828 1.39784,1.96912 5.68488,4.54264 6.391,3.83652 0.24328,-0.24328 -0.0585,-1.74224 -0.67058,-3.33102 -0.6121,-1.58878 -1.51452,-6.93869 -2.00537,-11.88869 -0.49086,-4.95 -1.22452,-11.025 -1.63035,-13.5 l -0.73787,-4.5 -0.54811,4.5 -0.5481,4.5 -1.65287,-3.03837 c -4.7015,-8.64251 -8.46684,-40.98085 -12.59891,-108.20464 -0.7422,-12.07466 -0.32508,-17.57533 1.0592,-13.96796 0.34672,0.90354 1.15198,6.49564 1.78946,12.42689 0.63749,5.93124 1.54415,12.80908 2.01482,15.28408 0.71055,3.73643 0.78585,3.22739 0.44375,-3 -0.44786,-8.1526 -1.99997,-27.37213 -3.55331,-44 -1.23868,-13.25969 -1.19401,-27.88087 0.0718,-23.5 0.47675,1.65 3.37805,23.025 6.44733,47.5 3.06928,24.475 6.66114,50.8 7.98192,58.5 1.32078,7.7 4.03453,25.25 6.03056,39 1.99603,13.75 4.23523,27.09027 4.97599,29.64504 0.74077,2.55477 1.64868,7.05477 2.01757,10 0.3689,2.94523 1.52849,6.41277 2.57689,7.70564 1.6988,2.09495 2.24965,2.23094 5.06357,1.25 1.73658,-0.60537 4.77776,-1.07276 6.75819,-1.03865 l 3.60077,0.062 -4.25,2.13498 c -2.3375,1.17424 -4.25,2.48375 -4.25,2.91003 0,1.0713 9.01916,3.49146 17.89709,4.80241 8.21991,1.21379 9.43769,1.67781 8.47811,3.23044 -0.45009,0.72826 -5.6588,0.83965 -16.51631,0.35321 -16.56621,-0.74222 -17.762,-0.45825 -13.98319,3.32056 2.02783,2.02783 9.96341,3.71355 22.45077,4.76912 8.03975,0.67961 12.01514,2.36508 10.12053,4.29086 -0.73667,0.74879 -5.69346,0.79207 -16.5,0.14406 -8.49585,-0.50945 -15.83529,-0.55002 -16.30987,-0.0901 -1.30697,1.26649 0.2041,3.00284 2.67189,3.07023 1.20504,0.0329 6.24098,0.88218 11.19098,1.88727 l 9,1.82745 -7.5,0.0159 c -4.125,0.009 -11.48375,-0.60373 -16.35277,-1.36102 z m -18.93472,-73.1794 c -0.65476,-7.94563 -4.42659,-43.56077 -5.3691,-50.69718 -0.47228,-3.57589 -0.84874,-4.40744 -1.35818,-3 -0.38763,1.07095 -0.30916,4.87218 0.17438,8.44718 0.48354,3.575 1.06111,9.875 1.28348,14 0.22237,4.125 1.33865,14.0127 2.48061,21.97267 1.14197,7.95997 2.0763,14.82247 2.0763,15.25 0,0.42753 0.28546,0.77733 0.63437,0.77733 0.3489,0 0.38406,-3.0375 0.0781,-6.75 z m -7.00525,-63.48834 c -0.23919,-1.24391 -0.44398,-0.46166 -0.45508,1.73834 -0.0111,2.2 0.18461,3.21775 0.4349,2.26166 0.25029,-0.95609 0.25937,-2.75609 0.0202,-4 z m -1,-9 c -0.23919,-1.24391 -0.44398,-0.46166 -0.45508,1.73834 -0.0111,2.2 0.18461,3.21775 0.4349,2.26166 0.25029,-0.95609 0.25937,-2.75609 0.0202,-4 z m 115.79274,109.51156 c -1.65,-0.23491 -3.4275,-0.84249 -3.95,-1.35017 -1.0642,-1.03401 12.51811,-1.27947 16.2,-0.29276 6.63476,1.77804 -2.60086,3.0167 -12.25,1.64293 z m -38.5,-1.27322 c 0,-0.55 0.42344,-1 0.94098,-1 0.51754,0 1.2191,0.45 1.55902,1 0.33992,0.55 -0.0835,1 -0.94098,1 -0.85746,0 -1.55902,-0.45 -1.55902,-1 z m 128.65132,-222.74687 c 0.37918,-1.51078 1.71563,-5.2724 2.96989,-8.35916 1.25426,-3.08676 3.30591,-9.83816 4.55922,-15.00313 1.25331,-5.16496 2.42375,-8.439179 2.60099,-7.276039 0.35897,2.355819 -6.24027,26.331979 -8.43209,30.635199 -1.79344,3.52109 -2.58133,3.52255 -1.69801,0.003 z m 10.9675,-55.003129 c -0.77663,-2.63416 -2.62447,-17.017086 -2.57878,-20.072356 l 0.04,-2.677641 1.61122,2.977732 c 1.00643,1.860011 1.79327,6.458169 2.09622,12.249998 0.45532,8.704867 0.0152,11.537747 -1.1687,7.522267 z m -4.60351,-40.999997 c 0.008,-2.0625 0.45153,-4.425 0.98469,-5.25 0.69397,-1.073843 0.97372,-0.0085 0.98469,3.75 0.008,2.8875 -0.43469,5.25 -0.98469,5.25 -0.55,0 -0.99311,-1.6875 -0.98469,-3.75 z M -786.34962,-6.297619 c 0.048,-1.164943 0.28494,-1.4019 0.60416,-0.604167 0.28887,0.721875 0.25335,1.584375 -0.0789,1.916667 -0.33229,0.332291 -0.56864,-0.258334 -0.52522,-1.3125 z m 228.92105,-17.363882 -2.5,-0.747856 2.75,-1.31298 c 1.5125,-0.722138 2.75,-1.745847 2.75,-2.274909 0,-0.529061 0.675,-0.401729 1.5,0.28296 0.825,0.684689 1.5,2.089789 1.5,3.122445 0,1.987576 -1.62399,2.239387 -6,0.93034 z M -783.693,-24.312052 c -0.89341,-0.893409 0.30873,-3.404507 1.62142,-3.386921 0.62865,0.0084 1.81801,0.458422 2.64301,1 1.33333,0.875277 1.33333,1.094097 0,1.969374 -1.71272,1.124327 -3.39312,1.288862 -4.26443,0.417547 z"
         id="path6857"
         inkscape:connector-curvature="0" />
      <path
         style="fill:#878787"
         d="m -738.92857,389.17125 c -7.93081,-1.15074 -15.04893,-3.77649 -17.60053,-6.49255 -2.83169,-3.0142 -3.84752,-8.16279 -3.87561,-19.64299 -0.0188,-7.6786 0.27209,-9.75 1.36915,-9.75 0.76616,0 1.64301,0.65147 1.94855,1.44771 0.54481,1.41974 6.51083,5.03323 7.18952,4.35454 0.18987,-0.18987 -0.25834,-2.36055 -0.99603,-4.82373 -0.73769,-2.46319 -1.79981,-8.75352 -2.36027,-13.97852 -0.56046,-5.225 -2.16251,-19.4 -3.56011,-31.5 -6.94212,-60.10286 -8.85635,-78.80877 -11.15425,-109 -0.79537,-10.45 -1.40414,-20.575 -1.35282,-22.5 l 0.0933,-3.5 0.87813,3.72212 c 0.48297,2.04717 3.16002,21.62217 5.94899,43.5 2.78898,21.87783 5.9404,44.72788 7.00316,50.77788 2.10055,11.95791 6.35827,40.2637 7.96118,52.92685 1.48464,11.72879 6.10333,31.74378 7.92138,34.32712 0.98118,1.39419 2.25379,2.06173 3.33626,1.75 0.9625,-0.27718 2.7625,-0.76728 4,-1.08911 l 2.25,-0.58513 -2.32781,1.89812 c -2.05583,1.67636 -2.14867,2.04679 -0.79461,3.17055 0.84325,0.69984 6.97013,2.26674 13.61529,3.48201 11.35793,2.07714 15.03497,3.74081 9.75767,4.41484 -1.2714,0.16238 -7.92289,-0.12236 -14.78109,-0.63277 -6.8582,-0.5104 -12.85166,-0.57606 -13.31879,-0.14591 -1.48736,1.36961 0.3188,4.72814 3.18008,5.91332 1.52033,0.62974 8.78439,1.9277 16.14235,2.88435 9.03567,1.17478 13.52289,2.17372 13.82416,3.07753 0.36363,1.09089 -2.57454,1.27072 -15.90062,0.9732 -14.44753,-0.32257 -16.3842,-0.17688 -16.66974,1.25399 -0.25376,1.27162 1.24266,1.94491 6.97502,3.13828 7.26821,1.51311 7.27762,1.51929 2.29809,1.5091 -2.75,-0.006 -7.7,-0.40198 -11,-0.8808 z m 131.25,0.45218 c 0.6875,-0.27741 1.8125,-0.27741 2.5,0 0.6875,0.27741 0.125,0.50439 -1.25,0.50439 -1.375,0 -1.9375,-0.22698 -1.25,-0.50439 z m 7.48242,-0.0936 c -0.67783,-0.22592 -1.23242,-1.45014 -1.23242,-2.72046 0,-3.10914 -1.23393,-3.39733 -10,-2.33561 -18.74833,2.27074 -77.53405,2.62506 -79.66896,0.48019 -0.45534,-0.45747 0.0449,-1.46997 1.11166,-2.25 1.56121,-1.14158 7.41306,-1.42781 29.99843,-1.46732 15.43238,-0.027 34.34055,-0.4317 42.01815,-0.89934 12.64714,-0.77034 14.12761,-1.05813 15.75,-3.0617 0.9849,-1.2163 1.79072,-3.12176 1.79072,-4.23436 0,-1.94001 -0.42006,-1.99706 -10.25,-1.39204 -22.77964,1.40205 -77.44,1.94712 -78.16168,0.77943 -0.52032,-0.8419 4.29896,-1.14291 18.29819,-1.14291 33.32868,0 64.11349,-3.59249 64.11349,-7.48184 0,-0.77261 -0.98535,-2.09492 -2.18967,-2.93846 -3.34631,-2.34385 -1.64208,-2.78815 2.53197,-0.6601 4.50103,2.29476 5.98886,1.29104 7.72925,-5.21427 0.61879,-2.31293 2.17309,-7.80533 3.454,-12.20533 1.28091,-4.4 3.04227,-12.275 3.91413,-17.5 0.87186,-5.225 2.44589,-11.3 3.49785,-13.5 2.44082,-5.1046 6.60905,-27.95015 8.59734,-47.12103 1.9204,-18.51628 6.42099,-52.66816 7.01957,-53.26675 0.24506,-0.24505 0.47719,0.86695 0.51585,2.47111 0.0386,1.60417 0.43485,3.81667 0.88044,4.91667 0.85693,2.11546 0.8065,2.28839 2.5411,-8.71492 0.70762,-4.48876 2.52571,-6.03354 2.46458,-2.0941 -0.10059,6.48212 -3.22229,38.04789 -6.35985,64.30902 -2.31475,19.37423 -4.99316,36.55637 -9.56738,61.37535 -1.1024,5.98144 -1.74709,11.9004 -1.43265,13.15323 0.36577,1.45734 0.0328,2.58291 -0.92439,3.12465 -1.82776,1.03448 -3.41035,8.34677 -1.80648,8.34677 0.59853,0 1.82536,-1.125 2.7263,-2.5 0.90093,-1.375 2.23475,-2.5 2.96403,-2.5 2.4708,0 2.66366,2.13729 0.4094,4.53684 -2.18897,2.33005 -2.20025,2.45578 -0.4589,5.11341 2.50293,3.81996 2.57232,15.05434 0.11613,18.80295 -2.65423,4.05088 -16.14557,9.20582 -20.3902,7.79094 z m 5.26758,-11.24412 c 0.33992,-0.55 -0.0835,-1 -0.94098,-1 -0.85746,0 -1.55902,0.45 -1.55902,1 0,0.55 0.42344,1 0.94098,1 0.51754,0 1.2191,-0.45 1.55902,-1 z m 13.5,-67.2 c 0,-1.61542 -0.29571,-1.90429 -1.11287,-1.08713 -0.61207,0.61207 -0.81052,1.60207 -0.44098,2.2 1.03439,1.67368 1.55385,1.30164 1.55385,-1.11287 z m 2.40063,-11.82897 c 2.42522,-12.00431 4.44126,-27.67234 5.01451,-38.97103 0.70691,-13.93328 -0.72871,-8.16861 -2.86393,11.5 -0.89562,8.25 -2.0267,17.25 -2.51353,20 -1.13553,6.41454 -2.0992,15.89486 -1.56099,15.35664 0.22802,-0.22802 1.0938,-3.77654 1.92394,-7.88561 z m -180.27013,28.9311 c -4.16875,-10.37442 -7.3719,-38.4228 -10.13612,-88.75707 -1.09512,-19.94113 -0.89781,-26.95286 0.43449,-15.44079 0.36891,3.18765 1.31218,10.29573 2.09615,15.79573 0.78397,5.5 1.88582,15.625 2.44854,22.5 2.16659,26.47019 3.08074,35.02249 5.3979,50.5 2.21248,14.77824 2.11114,21.25559 -0.24096,15.40213 z m 193.98781,-139.09311 c -0.0651,-3.13004 0.33169,-5.9691 0.88169,-6.30902 1.15447,-0.7135 1.15447,4.46301 0,9 -0.63092,2.47948 -0.7839,2.01258 -0.88169,-2.69098 z m 16.88169,-121.669446 c 0,-1.02323 -0.28839,-4.060735 -0.64088,-6.749999 -0.35248,-2.689264 -0.3069,-4.581486 0.1013,-4.204937 1.07473,0.991398 2.32587,12.815366 1.35604,12.815366 -0.44905,0 -0.81646,-0.83719 -0.81646,-1.86043 z m -9,-92.032581 c 0,-0.89317 2.35148,-2.106989 4.08179,-2.106989 0.50501,0 0.91821,0.675 0.91821,1.5 0,0.933333 -0.94444,1.5 -2.5,1.5 -1.375,0 -2.5,-0.401855 -2.5,-0.893011 z m -226,-1.106989 c 0,-0.55 0.9,-1 2,-1 1.1,0 2,0.45 2,1 0,0.55 -0.9,1 -2,1 -1.1,0 -2,-0.45 -2,-1 z"
         id="path6855"
         inkscape:connector-curvature="0" />
      <path
         style="fill:#777777"
         d="m -745.19842,387.73531 c -12.40862,-3.3407 -14.28436,-6.17682 -15.01299,-22.6996 -0.41717,-9.45983 -0.27862,-10.75 1.15439,-10.75 0.89565,0 1.62845,0.44085 1.62845,0.97968 0,1.06127 7.92576,5.4279 8.61003,4.74362 0.22892,-0.22892 -0.2152,-1.94781 -0.98694,-3.81976 -0.77173,-1.87195 -1.70846,-7.22854 -2.0816,-11.90354 -0.37315,-4.675 -1.0924,-9.85 -1.59834,-11.5 -0.93498,-3.04916 -1.44475,-7.25854 -4.96529,-41 -1.09034,-10.45 -2.19547,-20.125 -2.45584,-21.5 -0.48885,-2.58157 -2.36613,-21.30746 -5.00624,-49.93738 -0.83368,-9.04056 -1.46647,-19.39056 -1.40621,-23 0.10901,-6.52966 0.11391,-6.54047 0.9751,-2.153 0.47604,2.42529 2.46305,17.05029 4.41558,32.5 1.95252,15.44971 4.65097,34.61538 5.99655,42.59038 2.63902,15.64101 7.00661,45.78131 8.04241,55.5 0.35171,3.3 1.7238,10.5 3.04907,16 1.32528,5.5 2.41008,10.95181 2.41066,12.11514 5.8e-4,1.16333 0.93397,3.30115 2.0742,4.75071 3.75906,4.77888 9.93004,7.5186 21.21478,9.41869 5.83976,0.98328 10.97647,2.16815 11.41491,2.63304 0.43844,0.46488 -6.32318,0.53043 -15.02583,0.14565 l -15.823,-0.6996 0.323,2.81818 c 0.46019,4.01513 5.18514,5.95725 17.823,7.32585 13.30786,1.44115 15.21579,1.83416 14.50303,2.98743 -0.53053,0.85842 -5.67927,0.75246 -23.22211,-0.47789 -4.74482,-0.33278 -6.59018,-0.0651 -7.78452,1.12926 -1.98197,1.98197 -0.49355,4.05987 3.32678,4.64435 1.56971,0.24015 0.81565,0.44428 -1.82318,0.49355 -2.475,0.0462 -6.87143,-0.55443 -9.76985,-1.33476 z m 144.76985,-0.1971 c 0,-4.06915 -2.02192,-4.50057 -14.69552,-3.13558 -12.86341,1.38544 -73.6238,1.88548 -74.90011,0.61641 -2.27317,-2.26028 3.20964,-2.80042 32.66517,-3.21801 31.18551,-0.44213 49.73283,-1.206 53.27175,-2.19399 2.1157,-0.59067 5.21086,-7.16918 3.96107,-8.41897 -0.45894,-0.45894 -6.00223,-0.40248 -12.3184,0.12547 -17.65626,1.47585 -68.99259,2.27556 -72.48396,1.12915 -2.17336,-0.71364 2.94526,-1.00876 18.57632,-1.07103 31.94782,-0.12727 56.01487,-2.94408 60.40673,-7.07003 1.18022,-1.10875 2.68596,-2.01592 3.3461,-2.01592 1.88666,0 4.90755,-5.75851 5.66274,-10.7945 0.37839,-2.52329 1.53629,-6.73996 2.57309,-9.37037 1.03681,-2.6304 2.61394,-9.40688 3.50474,-15.05884 0.89079,-5.65196 2.47947,-11.85129 3.5304,-13.77629 2.82708,-5.17839 8.13448,-35.91307 9.8101,-56.80944 1.35856,-16.94227 4.03421,-35.42542 5.31139,-36.69056 1.39995,-1.38676 0.17398,14.87434 -2.26178,30 -1.06283,6.6 -2.62101,18.3 -3.46262,26 -1.39321,12.7467 -3.45531,27.04799 -5.06562,35.13158 -0.3431,1.72237 -0.18946,3.40003 0.34144,3.72815 0.91496,0.56547 3.15188,-9.66226 6.74938,-30.85973 1.4982,-8.82779 1.9281,-12.92376 3.04374,-29 0.9363,-13.49213 3.31868,-33.02515 4.33946,-35.57907 3.98942,-9.98129 -3.6465,61.23833 -10.89095,101.57907 -1.67908,9.35 -3.31747,19.25 -3.64085,22 -0.32338,2.75 -1.43978,6.82958 -2.48088,9.06572 -1.04111,2.23615 -1.89293,4.59865 -1.89293,5.25 0,2.18583 3.7522,1.21141 5.47809,-1.42262 1.22627,-1.87154 2.01368,-2.30133 2.79138,-1.52363 0.7777,0.7777 0.61039,1.6058 -0.5931,2.93564 -2.07937,2.29769 -2.10339,3.61355 -0.12115,6.63883 2.10513,3.21283 2.18212,13.22953 0.13215,17.19373 -1.81948,3.51848 -9.55849,7.34914 -16.43737,8.13618 -3.75017,0.42907 -4.25,0.25015 -4.25,-1.52135 z m 6.5,-8.2525 c 0,-1.56144 -0.646,-2.59702 -1.75302,-2.81021 -1.97949,-0.38122 -3.26679,2.01323 -2.35699,4.38412 0.95373,2.4854 4.11001,1.27672 4.11001,-1.57391 z m -164.75221,-50.62012 c -1.52399,-2.42037 -4.66753,-18.55375 -6.11428,-31.37988 -1.7923,-15.88954 -3.99275,-51.19569 -3.45904,-55.5 0.46997,-3.79024 2.62376,9.69626 3.35369,21 0.28413,4.4 0.96884,10.83554 1.52159,14.30121 0.55274,3.46566 0.78068,6.66414 0.50653,7.10773 -0.27415,0.44359 0.85835,10.16393 2.51669,21.60075 2.87409,19.82139 3.28458,25.42677 1.67482,22.87019 z m 203.25221,-353.379876 c 0,-0.55 0.675,-1 1.5,-1 0.825,0 1.5,0.45 1.5,1 0,0.55 -0.675,1 -1.5,1 -0.825,0 -1.5,-0.45 -1.5,-1 z"
         id="path6853"
         inkscape:connector-curvature="0" />
      <path
         style="fill:#515151"
         d="m -599.88308,388.08347 c -0.23561,-0.71377 -0.57659,-2.19776 -0.75773,-3.29776 -0.3927,-2.38476 -2.74454,-2.45071 -21.78776,-0.61098 -12.74409,1.23119 -64.26395,1.68392 -66.04946,0.58041 -3.01485,-1.86328 3.1503,-2.32612 32.31094,-2.42569 17.73119,-0.0606 37.18852,-0.48967 43.23852,-0.9536 8.83039,-0.67714 11.31139,-0.57198 12.57874,0.53317 0.86831,0.75718 2.45568,1.37669 3.52749,1.37669 2.73158,0 6.41215,-2.78853 5.79687,-4.39192 -0.76313,-1.98869 -4.84111,-3.57715 -6.49519,-2.53 -2.31412,1.46498 -2.64139,1.09799 -2.52197,-2.82808 0.108,-3.55093 -0.0452,-3.74346 -2.88594,-3.62672 -1.65,0.0678 -8.625,0.40251 -15.5,0.74379 l -12.5,0.62053 10.17017,-1.86595 c 16.80639,-3.08351 22.35863,-6.91969 24.30202,-16.79085 1.16013,-5.89275 2.33564,-9.73208 4.38772,-14.3308 l 1.56181,-3.5 0.0545,3 c 0.042,2.31171 0.27686,2.65586 1.02383,1.5 1.36776,-2.11646 1.2319,-5.75603 -0.2331,-6.24437 -0.97723,-0.32574 -0.97643,-1.90776 0.004,-7.6244 1.26304,-7.36552 4.40774,-14.15837 5.03842,-10.88349 0.1745,0.90609 -0.16118,2.54144 -0.74596,3.63411 -1.3217,2.46962 -1.39771,9.7934 -0.1099,10.58931 1.24682,0.77057 3.976,-10.32669 8.72352,-35.47116 0.98653,-5.225 1.92957,-8.59851 2.09565,-7.49669 0.16607,1.10182 -1.78424,14.15182 -4.33403,29 -2.54979,14.84818 -4.70515,28.34669 -4.78969,29.99669 -0.0845,1.65 -0.89325,4.125 -1.79712,5.5 -0.90388,1.375 -1.93365,3.47489 -2.28839,4.66642 -0.36341,1.22062 -2.01845,2.64521 -3.791,3.26312 -2.25183,0.785 -2.83919,1.40354 -2.0665,2.17623 0.77268,0.77268 1.69254,0.75143 3.23632,-0.0748 3.30273,-1.76757 7.55791,-0.9405 7.55791,1.46901 0,1.1 0.72097,2.29839 1.60216,2.66309 3.15134,1.30424 3.12634,14.44681 -0.0347,18.25566 -2.87393,3.46287 -17.73024,7.77734 -18.52194,5.37901 z m 11.95451,-22.79776 c 1.68588,-0.72445 1.49883,-0.87047 -1.19098,-0.92971 -1.75504,-0.0387 -3.4691,0.37971 -3.80902,0.92971 -0.74125,1.19936 2.20893,1.19936 5,0 z m -160.25233,21.12023 c -2.88879,-0.99796 -6.09248,-2.5748 -7.11933,-3.50408 -2.35755,-2.13356 -4.12834,-10.80874 -4.12834,-20.22495 l 0,-7.27524 4.25,2.42997 c 3.96485,2.26694 7.75,3.18921 7.75,1.88833 0,-0.31116 -0.53464,-1.54866 -1.18809,-2.75 -0.65345,-1.20134 -1.48846,-6.78485 -1.85559,-12.40779 -0.36713,-5.62295 -1.19795,-10.86269 -1.84627,-11.64387 -1.18199,-1.42421 -2.86503,-13.57494 -5.62816,-40.6326 -0.81441,-7.975 -1.92736,-17.875 -2.47321,-22 -2.7535,-20.80803 -5.96994,-63.52202 -4.48045,-59.5 0.20368,0.55 1.55051,10.225 2.99295,21.5 1.44244,11.275 3.93347,28.6 5.53562,38.5 4.22366,26.09885 5.92284,38.57935 6.94349,51 0.49714,6.05 1.6064,13.475 2.46501,16.5 0.85861,3.025 2.25755,8.65 3.10877,12.5 2.40554,10.88006 6.40235,14.05227 21.99948,17.46068 10.77342,2.3543 12.08201,3.52601 2.92645,2.62034 -20.92028,-2.06943 -21.32633,-2.0095 -20.07827,2.96317 0.87502,3.48635 4.34605,5.36724 12.72923,6.89773 l 7.34904,1.3417 -8.55,0.10819 c -8.79068,0.11124 -10.95,0.9608 -10.95,4.30819 0,2.31948 -2.87536,2.29596 -9.75233,-0.0798 z m -0.24767,-22.12023 c -0.825,-0.53316 -2.4,-0.96937 -3.5,-0.96937 -1.65614,0 -1.7421,0.16666 -0.5,0.96937 0.825,0.53316 2.4,0.96937 3.5,0.96937 1.65614,0 1.7421,-0.16666 0.5,-0.96937 z m 167,-7.94098 c 0,-0.51754 0.45,-1.2191 1,-1.55902 0.55,-0.33992 1,0.0835 1,0.94098 0,0.85746 -0.45,1.55902 -1,1.55902 -0.55,0 -1,-0.42344 -1,-0.94098 z m -178.37924,-33.05902 c -2.95741,-13.79282 -3.61312,-17.61763 -4.54311,-26.5 -1.82042,-17.38697 -2.25323,-28.3556 -1.0062,-25.5 0.60045,1.375 1.25853,5.65 1.4624,9.5 0.20386,3.85 1.53304,15.07627 2.95374,24.94726 2.35118,16.33601 2.98828,26.20465 1.13317,17.55274 z m 176.61124,-20 c 0,-1.925 0.2058,-2.7125 0.45733,-1.75 0.25152,0.9625 0.25152,2.5375 0,3.5 -0.25153,0.9625 -0.45733,0.175 -0.45733,-1.75 z m 0.84695,-6.58333 c 0.048,-1.16495 0.28494,-1.4019 0.60416,-0.60417 0.28887,0.72188 0.25335,1.58438 -0.0789,1.91667 -0.3323,0.33229 -0.56864,-0.25834 -0.52522,-1.3125 z m 8.95168,-31.91667 c 0,-1.1 0.43621,-2.675 0.96937,-3.5 0.80271,-1.2421 0.96937,-1.15614 0.96937,0.5 0,1.1 -0.43621,2.675 -0.96937,3.5 -0.80271,1.2421 -0.96937,1.15614 -0.96937,-0.5 z m 1.5541,-13.5 c 0.36668,-4.125 1.04682,-8.4 1.51142,-9.5 0.49351,-1.16842 0.59507,1.32631 0.24427,6 -0.33026,4.4 -1.0104,8.675 -1.51142,9.5 -0.56438,0.92933 -0.65731,-1.35335 -0.24427,-6 z m -4.03294,-5 c 0.31673,-3.575 0.97574,-8.075 1.46447,-10 0.62237,-2.45137 0.71311,-1.10312 0.30288,4.5 -0.32215,4.4 -0.98117,8.9 -1.46448,10 -0.55465,1.26236 -0.66635,-0.39734 -0.30287,-4.5 z"
         id="path6851"
         inkscape:connector-curvature="0" />
      <path
         style="fill:#282828"
         d="m -598.94881,387.25296 c -0.91972,-1.48813 0.41366,-2.96725 2.67489,-2.96725 2.51762,0 7.84535,-3.67812 7.84535,-5.41622 0,-1.5982 -7.43637,-5.05016 -8.91313,-4.13747 -0.64353,0.39772 -1.08687,-0.14068 -1.08687,-1.31991 0,-1.18612 0.90845,-2.27995 2.24616,-2.70453 1.23539,-0.3921 2.69789,-1.2645 3.25,-1.93868 1.36981,-1.67266 11.37179,-3.50587 12.16099,-2.22892 1.27174,2.05772 0.47939,11.88839 -1.15984,14.39018 -2.55783,3.90373 -15.53313,8.72465 -17.01755,6.3228 z m 12.52024,-16.96725 c 0,-0.55 -0.45,-1 -1,-1 -0.55,0 -1,0.45 -1,1 0,0.55 0.45,1 1,1 0.55,0 1,-0.45 1,-1 z m -162.6175,15.08625 c -4.97687,-2.26008 -7.3825,-5.43709 -7.3825,-9.74974 0,-1.77016 -0.45,-3.49659 -1,-3.83651 -0.83086,-0.5135 -1.53315,-7.52531 -0.75,-7.48813 0.76443,0.0363 10.53815,2.88182 12.1154,3.52729 1.61081,0.6592 1.76301,0.43565 1.11522,-1.63789 -0.4126,-1.3207 -1.08217,-2.62627 -1.48793,-2.90127 -0.8644,-0.58583 -0.0665,-7.00001 0.87081,-6.99997 0.35007,2e-5 1.93498,1.6274 3.52201,3.6164 1.58703,1.98901 5.18703,4.66307 8,5.94237 l 5.11449,2.32599 -5.75,0.0576 c -5.35975,0.0537 -5.75,0.21781 -5.75,2.41806 0,1.29825 1.11692,4.00633 2.48205,6.01796 2.47455,3.64645 2.47606,3.66348 0.5,5.63954 -1.09013,1.09013 -1.98205,2.65705 -1.98205,3.48205 0,2.08884 -4.53636,1.89368 -9.6175,-0.41375 z m 144.81305,-19.62431 c 2.58255,-1.34471 5.11234,-3.1897 5.62175,-4.09996 0.83608,-1.49398 1.13754,-1.50702 3.09788,-0.13394 l 2.17167,1.52109 -3.12015,2.62544 c -2.4223,2.03823 -4.16537,2.61502 -7.79343,2.57887 l -4.67327,-0.0466 4.69555,-2.44494 z m 13.80445,-3.34531 c 0,-1.11328 4.03138,-2.21527 5.2803,-1.44339 0.51412,0.31774 0.32391,0.96284 -0.42354,1.43645 -1.77837,1.12683 -4.85676,1.13123 -4.85676,0.007 z m -165.25,-0.83288 c -1.52742,-0.23139 -2.75,-1.05393 -2.75,-1.85017 0,-0.78847 0.17004,-1.43358 0.37788,-1.43358 0.94153,0 7.62212,3.07942 7.62212,3.51342 0,0.50264 -0.58472,0.47706 -5.25,-0.22967 z m 166.78183,-13.03375 c 0.41175,-1.5125 1.06753,-4.6845 1.45729,-7.04888 0.68975,-4.18427 2.41638,-7.12895 3.52819,-6.01715 1.34863,1.34864 -2.99363,15.81603 -4.74704,15.81603 -0.59164,0 -0.68717,-1.10169 -0.23844,-2.75 z m -163.71715,-22.25 c -0.72555,-1.59941 -1.65733,-8.82136 -4.83827,-37.5 -1.09807,-9.9 -2.44197,-21.58819 -2.98645,-25.97377 -1.56522,-12.60727 -0.94861,-14.99694 1.03888,-4.02623 4.5554,25.14513 8.04853,52.4006 7.76216,60.56493 -0.16272,4.63929 -0.60206,7.76007 -0.97632,6.93507 z m -9.73573,-84.58333 c 0.048,-1.16495 0.28494,-1.4019 0.60416,-0.60417 0.28888,0.72188 0.25335,1.58438 -0.0789,1.91667 -0.33229,0.33229 -0.56864,-0.25834 -0.52522,-1.3125 z"
         id="path6849"
         inkscape:connector-curvature="0" />
    </g>
  </g>
</svg>
