<?xml version="1.0" encoding="utf-8"?>
<!-- Generator: Adobe Illustrator 21.1.0, SVG Export Plug-In . SVG Version: 6.00 Build 0)  -->
<svg version="1.1" id="Icons" xmlns="http://www.w3.org/2000/svg" xmlns:xlink="http://www.w3.org/1999/xlink" x="0px" y="0px"
	 viewBox="0 0 48 48" style="enable-background:new 0 0 48 48;" xml:space="preserve">
<style type="text/css">
	.st0{fill:#724F3D;}
	.st1{fill:#A86C4D;}
	.st2{fill:none;stroke:#45413C;stroke-linecap:round;stroke-linejoin:round;stroke-miterlimit:10;}
	.st3{fill:#FF87AF;}
	.st4{fill:#FF6196;}
	.st5{fill:#FFE500;stroke:#45413C;stroke-linecap:round;stroke-linejoin:round;stroke-miterlimit:10;}
	.st6{fill:#45413C;stroke:#45413C;stroke-linecap:round;stroke-linejoin:round;stroke-miterlimit:10;}
	.st7{fill:#FF6242;}
	.st8{fill:#FFA694;}
	.st9{fill:#FFAA54;}
	.st10{fill:#00B8F0;}
	.st11{fill:#009FD9;}
	.st12{fill:#FFE500;}
	.st13{fill:#EBCB00;}
	.st14{fill:#9CEB60;}
	.st15{fill:#6DD627;}
	.st16{fill:#724F3D;stroke:#45413C;stroke-linecap:round;stroke-linejoin:round;stroke-miterlimit:10;}
	.st17{fill:#BF8DF2;}
	.st18{fill:#9F5AE5;}
	.st19{fill:#00DFEB;}
	.st20{fill:#00C9D4;}
	.st21{fill:#FF866E;}
	.st22{fill:#00F5BC;}
	.st23{fill:#00DBA8;}
	.st24{fill:#FF8A14;}
	.st25{fill:#DE926A;}
	.st26{fill:#FFCEBF;stroke:#45413C;stroke-linecap:round;stroke-linejoin:round;stroke-miterlimit:10;}
	.st27{fill:#FFB59E;}
	.st28{fill:#FFCEBF;}
	.st29{fill:#A86C4D;stroke:#45413C;stroke-linecap:round;stroke-linejoin:round;stroke-miterlimit:10;}
	.st30{fill:#ADC4D9;stroke:#45413C;stroke-linecap:round;stroke-linejoin:round;stroke-miterlimit:10;}
	.st31{fill:#FFF48C;}
	.st32{fill:#C0DCEB;stroke:#45413C;stroke-linecap:round;stroke-linejoin:round;stroke-miterlimit:10;}
	.st33{fill:#4ACFFF;}
	.st34{fill:#45413C;}
	.st35{fill:#FFDCD1;}
	.st36{opacity:0.15;fill:#45413C;}
	.st37{fill:#FFB59E;stroke:#45413C;stroke-linecap:round;stroke-linejoin:round;stroke-miterlimit:10;}
	.st38{fill:#00DFEB;stroke:#45413C;stroke-linecap:round;stroke-linejoin:round;stroke-miterlimit:10;}
	.st39{fill:#F0F0F0;stroke:#45413C;stroke-linecap:round;stroke-linejoin:round;stroke-miterlimit:10;}
	.st40{fill:#E0366F;}
	.st41{fill:#FFE8E0;}
	.st42{fill:#EBCB00;stroke:#45413C;stroke-linecap:round;stroke-linejoin:round;stroke-miterlimit:10;}
	.st43{fill:#FFDA8F;}
	.st44{fill:#FFBE3D;}
	.st45{fill:#FFE9BD;}
	.st46{fill:#FFFFFF;}
	.st47{fill:#E0E0E0;}
	.st48{fill:#656769;}
	.st49{fill:#525252;}
	.st50{fill:#87898C;}
	.st51{fill:#656769;stroke:#45413C;stroke-linecap:round;stroke-linejoin:round;stroke-miterlimit:10;}
	.st52{fill:#B89558;}
	.st53{fill:#947746;}
	.st54{fill:#525252;stroke:#45413C;stroke-linecap:round;stroke-linejoin:round;stroke-miterlimit:10;}
	.st55{fill:#FFFFFF;stroke:#45413C;stroke-linecap:round;stroke-linejoin:round;stroke-miterlimit:10;}
	.st56{fill:#A6FBFF;stroke:#45413C;stroke-linecap:round;stroke-linejoin:round;stroke-miterlimit:10;}
</style>
<g id="XMLID_10658_">
	<ellipse id="XMLID_10665_" class="st36" cx="24" cy="43.1" rx="13.6" ry="1.9"/>
	<path id="XMLID_10664_" class="st4" d="M24,36c0,0-4.2,0.3-11.5-4.8c-4.5-3.1-7.7-4.9-9.2-5.7c-0.6-0.3-1-0.9-1-1.6v0
		c0-0.6,0.3-1.2,0.8-1.5c2-1.3,7.5-5.3,11-10.9C20,2.3,24,8,24,8s4-5.7,9.8,3.6c3.5,5.6,9,9.6,11,10.9c0.5,0.3,0.8,0.9,0.8,1.5v0
		c0,0.7-0.4,1.3-1,1.6c-1.5,0.8-4.7,2.6-9.2,5.7C28.2,36.4,24,36,24,36z"/>
	<path id="XMLID_10663_" class="st3" d="M2.4,24.1c0,0.4,0.5,0.7,0.9,0.8c1.5,0.4,4.7,1.4,9.2,3.2C19.8,31,24,30.8,24,30.8
		s4.2,0.2,11.5-2.7c4.5-1.8,7.7-2.8,9.2-3.2c0.4-0.1,0.9-0.4,0.9-0.8H2.4z"/>
	<path id="XMLID_10662_" class="st3" d="M3.3,25.6c0,0,0.1,0,0.1,0.1c2.2-1.5,7.4-5.3,10.7-10.7c3.5-5.6,6.3-5.8,8-5
		c1.1,0.5,2.4,0.5,3.5,0c1.7-0.7,4.5-0.5,8,5c3.4,5.4,8.5,9.3,10.7,10.7c0,0,0.1,0,0.1-0.1c0.6-0.3,1-0.9,1-1.6
		c0-0.6-0.3-1.2-0.8-1.5c-2-1.3-7.5-5.3-11-10.9C28,2.3,24,8,24,8s-4-5.7-9.8,3.6c-3.5,5.6-9,9.6-11,10.9c-0.5,0.3-0.8,0.9-0.8,1.5
		C2.4,24.7,2.8,25.3,3.3,25.6z"/>
	<path id="XMLID_10661_" class="st2" d="M45.6,24c0,0.7-0.4,1.3-1,1.6c-1.5,0.8-4.7,2.6-9.2,5.7C28.2,36.4,24,36,24,36
		s-4.2,0.3-11.5-4.8c-4.5-3.1-7.7-4.9-9.2-5.7c-0.6-0.3-1-0.9-1-1.6c0-0.6,0.3-1.2,0.8-1.5c2-1.3,7.5-5.3,11-10.9C20,2.3,24,8,24,8
		s4-5.7,9.8,3.6c3.5,5.6,9,9.6,11,10.9C45.3,22.8,45.6,23.4,45.6,24z"/>
	<path id="XMLID_10660_" class="st54" d="M24,24.1c3.5,0,4.6,0.1,10.8,0.7s10.8-0.7,10.8-0.7s-5.3-0.7-10.8-3.5s-7.5-3.5-10.8-3.5
		c-3.3,0-5.3,0.8-10.8,3.5c-5.5,2.8-10.8,3.5-10.8,3.5s4.6,1.3,10.8,0.7S20.5,24.1,24,24.1z"/>
	<path id="XMLID_10659_" class="st55" d="M24,21.6c4.2,0,8.3-0.1,12.1-0.3c-0.4-0.2-0.9-0.4-1.3-0.6c-5.5-2.8-7.5-3.5-10.8-3.5
		c-3.3,0-5.3,0.8-10.8,3.5c-0.4,0.2-0.9,0.4-1.3,0.6C15.7,21.4,19.8,21.6,24,21.6z"/>
</g>
</svg>
