<?xml version="1.0" encoding="UTF-8" standalone="no"?>
<!-- Created with Inkscape (http://www.inkscape.org/) -->
<svg
   xmlns:dc="http://purl.org/dc/elements/1.1/"
   xmlns:cc="http://web.resource.org/cc/"
   xmlns:rdf="http://www.w3.org/1999/02/22-rdf-syntax-ns#"
   xmlns:svg="http://www.w3.org/2000/svg"
   xmlns="http://www.w3.org/2000/svg"
   xmlns:xlink="http://www.w3.org/1999/xlink"
   xmlns:sodipodi="http://inkscape.sourceforge.net/DTD/sodipodi-0.dtd"
   xmlns:inkscape="http://www.inkscape.org/namespaces/inkscape"
   width="160pt"
   height="209pt"
   id="svg2259"
   sodipodi:version="0.32"
   inkscape:version="0.43"
   version="1.0"
   sodipodi:docbase="C:\Documents and Settings\Owner\Desktop\SVG"
   sodipodi:docname="Toilet_green.svg"
   Author="Paul Robinson &lt;paul@paul-robinson.us&gt;">
  <defs
     id="defs2261">
    <linearGradient
       id="linearGradient3319">
      <stop
         id="stop3321"
         offset="0"
         style="stop-color:#c4c4c4;stop-opacity:1;" />
      <stop
         style="stop-color:#9b9c9c;stop-opacity:0.49803922;"
         offset="0"
         id="stop3323" />
      <stop
         id="stop3325"
         offset="0"
         style="stop-color:#868888;stop-opacity:0.24705882;" />
      <stop
         style="stop-color:#7c7e7e;stop-opacity:0.12156863;"
         offset="0.76704544"
         id="stop3327" />
      <stop
         id="stop3329"
         offset="0.88352275"
         style="stop-color:#2f3434;stop-opacity:0.05882353;" />
      <stop
         style="stop-color:#505454;stop-opacity:0.02745098;"
         offset="0.88352275"
         id="stop3331" />
      <stop
         id="stop3333"
         offset="1"
         style="stop-color:#727474;stop-opacity:0;" />
    </linearGradient>
    <linearGradient
       id="linearGradient3303">
      <stop
         id="stop3305"
         offset="0"
         style="stop-color:#c4c4c4;stop-opacity:1;" />
      <stop
         style="stop-color:#9b9c9c;stop-opacity:0.49803922;"
         offset="0"
         id="stop3307" />
      <stop
         id="stop3309"
         offset="1"
         style="stop-color:#727474;stop-opacity:0;" />
    </linearGradient>
    <linearGradient
       id="linearGradient3291">
      <stop
         style="stop-color:#c4c4c4;stop-opacity:1;"
         offset="0"
         id="stop3293" />
      <stop
         id="stop3299"
         offset="0"
         style="stop-color:#9b9c9c;stop-opacity:0.49803922;" />
      <stop
         style="stop-color:#868888;stop-opacity:0.24705882;"
         offset="0"
         id="stop3311" />
      <stop
         id="stop3313"
         offset="0.76704544"
         style="stop-color:#7c7e7e;stop-opacity:0.12156863;" />
      <stop
         style="stop-color:#2f3434;stop-opacity:0.05882353;"
         offset="0.88352275"
         id="stop3315" />
      <stop
         id="stop3317"
         offset="0.88352275"
         style="stop-color:#505454;stop-opacity:0.02745098;" />
      <stop
         style="stop-color:#727474;stop-opacity:0;"
         offset="1"
         id="stop3295" />
    </linearGradient>
    <radialGradient
       inkscape:collect="always"
       xlink:href="#linearGradient3291"
       id="radialGradient3301"
       cx="31.292494"
       cy="35.808441"
       fx="31.292494"
       fy="35.808441"
       r="9.5792904"
       gradientTransform="matrix(0.976396,-0.215989,5.881035e-2,0.265857,-1.367284,33.04737)"
       gradientUnits="userSpaceOnUse"
       spreadMethod="pad" />
    <radialGradient
       inkscape:collect="always"
       xlink:href="#linearGradient3291"
       id="radialGradient3342"
       gradientUnits="userSpaceOnUse"
       gradientTransform="matrix(0.976396,-0.215989,5.881035e-2,0.265857,-1.367284,33.04737)"
       spreadMethod="pad"
       cx="31.292494"
       cy="35.808441"
       fx="31.292494"
       fy="35.808441"
       r="9.5792904" />
  </defs>
  <sodipodi:namedview
     id="base"
     pagecolor="#ffffff"
     bordercolor="#666666"
     borderopacity="1.0"
     inkscape:pageopacity="0.0"
     inkscape:pageshadow="2"
     inkscape:zoom="1.7525988"
     inkscape:cx="66.40304"
     inkscape:cy="176.29342"
     inkscape:document-units="px"
     inkscape:current-layer="layer1"
     inkscape:window-width="756"
     inkscape:window-height="543"
     inkscape:window-x="234"
     inkscape:window-y="98" />
  <metadata
     id="metadata2264">
    <rdf:RDF>
      <cc:Work
         rdf:about="">
        <dc:format>image/svg+xml</dc:format>
        <dc:type
           rdf:resource="http://purl.org/dc/dcmitype/StillImage" />
      </cc:Work>
    </rdf:RDF>
  </metadata>
  <g
     inkscape:label="Layer 1"
     inkscape:groupmode="layer"
     id="layer1">
    <path
       id="Back Color"
       style="fill:#8ae234;fill-opacity:1;fill-rule:evenodd;stroke:none;stroke-width:1px;stroke-linecap:butt;stroke-linejoin:miter;stroke-opacity:1"
       d="M 196.66652,9.7068468 C 151.99969,1.5761268 88.987208,1.1580451 86.160468,8.3699903 L 84.029988,86.020837 C 44.697298,91.37306 6.868948,126.15952 4.573338,142.60667 C 3.291298,151.79196 4.996988,160.53053 12.201538,166.59938 C 8.186948,165.3652 26.978228,187.26928 50.208708,198.71477 C 52.831898,214.77071 50.818858,226.47956 46.104008,242.99413 C 46.228698,255.36193 87.303878,264.04249 101.21098,258.51186 L 176.4401,214.01354 C 180.45019,193.34436 179.24485,171.05142 179.39411,147.37937 C 190.77652,128.94632 198.69491,112.43995 198.20364,100.85709"
       sodipodi:nodetypes="cccsccccccc" />
    <path
       id="Lid"
       style="fill:#73d216;fill-opacity:1;fill-rule:evenodd;stroke:#4e9a06;stroke-width:1px;stroke-linecap:butt;stroke-linejoin:miter;stroke-opacity:1"
       d="M 9.005408,151.92816 C 1.406368,143.22812 35.457848,106.44198 61.208208,97.557777 C 94.934308,85.921842 151.75347,100.78508 163.47849,121.00416 C 172.93858,137.3175 24.772918,186.18734 9.005408,151.92816 z "
       sodipodi:nodetypes="cssc" />
    <path
       id="Edges"
       style="fill:none;fill-opacity:1;fill-rule:evenodd;stroke:#4e9a06;stroke-width:1px;stroke-linecap:butt;stroke-linejoin:miter;stroke-opacity:1"
       d="M 196.37048,9.1922193 L 196.4375,18.4021 M 181.95212,17.970427 L 195.52694,9.3045827 C 177.42941,6.2197814 146.04175,1.936101 115.43692,3.64182 C 107.44785,3.72184 96.220248,3.46854 86.662878,7.97443 M 181.79942,29.875233 L 86.567598,19.57155 L 86.820448,8.132 L 182.17231,18.034826 L 182.20053,29.732983 M 182.21093,30.013281 L 181.30932,104.88934 C 148.69763,98.403477 110.91044,87.481487 84.051218,85.926333 M 196.90264,95.153387 L 182.40581,105.21777 L 173.44184,121.94978 C 157.28838,148.48887 35.392118,188.24544 5.628948,159.01142 M 182.07172,29.789134 L 196.33039,18.313963 L 197.09372,95.821977 C 197.25895,112.59953 181.2145,143.0629 179.66187,146.48702 M 51.172338,199.24177 C 103.4056,205.7485 150.94025,168.8211 178.79394,146.85805 L 177.98591,213.29262 L 105.32896,256.9271 C 90.000618,266.06065 45.382788,255.82244 45.649048,243.01521 C 51.464268,226.79514 52.799608,215.90988 51.061518,199.68981 C -19.113332,158.44255 7.487948,136.55935 10.645528,131.25237 C 28.382468,108.32083 55.728325,92.170256 83.483808,85.703893 M 84.161258,86.237033 L 86.399959,19.491684"
       sodipodi:nodetypes="cccccccccccccsccccccsscccccccccc" />
    <path
       style="fill:#ffffff;fill-opacity:1;fill-rule:evenodd;stroke:#a0a2a3;stroke-width:0.40000001;stroke-linecap:butt;stroke-linejoin:miter;stroke-miterlimit:4;stroke-dasharray:none;stroke-opacity:1"
       d="M 92.672579,28.03363 C 98.239749,28.642327 109.23223,24.347498 106.16536,23.975218 C 102.27016,23.50239 93.005979,27.262624 92.585379,26.017124 C 90.674069,20.357252 83.665829,27.048859 92.672579,28.03363 z "
       id="path3289"
       sodipodi:nodetypes="csss" />
  </g>
</svg>
